<svg width="20" height="21" viewBox="0 0 20 21" fill="none" xmlns="http://www.w3.org/2000/svg">
<path d="M15.8333 4.08329H14.1666V3.24996C14.1666 3.02895 14.0788 2.81698 13.9225 2.6607C13.7663 2.50442 13.5543 2.41663 13.3333 2.41663C13.1123 2.41663 12.9003 2.50442 12.744 2.6607C12.5878 2.81698 12.5 3.02895 12.5 3.24996V4.08329H7.49996V3.24996C7.49996 3.02895 7.41216 2.81698 7.25588 2.6607C7.0996 2.50442 6.88764 2.41663 6.66663 2.41663C6.44561 2.41663 6.23365 2.50442 6.07737 2.6607C5.92109 2.81698 5.83329 3.02895 5.83329 3.24996V4.08329H4.16663C3.50358 4.08329 2.8677 4.34668 2.39886 4.81553C1.93002 5.28437 1.66663 5.92025 1.66663 6.58329V16.5833C1.66663 17.2463 1.93002 17.8822 2.39886 18.3511C2.8677 18.8199 3.50358 19.0833 4.16663 19.0833H15.8333C16.4963 19.0833 17.1322 18.8199 17.6011 18.3511C18.0699 17.8822 18.3333 17.2463 18.3333 16.5833V6.58329C18.3333 5.92025 18.0699 5.28437 17.6011 4.81553C17.1322 4.34668 16.4963 4.08329 15.8333 4.08329ZM16.6666 16.5833C16.6666 16.8043 16.5788 17.0163 16.4225 17.1725C16.2663 17.3288 16.0543 17.4166 15.8333 17.4166H4.16663C3.94561 17.4166 3.73365 17.3288 3.57737 17.1725C3.42109 17.0163 3.33329 16.8043 3.33329 16.5833V10.75H16.6666V16.5833ZM16.6666 9.08329H3.33329V6.58329C3.33329 6.36228 3.42109 6.15032 3.57737 5.99404C3.73365 5.83776 3.94561 5.74996 4.16663 5.74996H5.83329V6.58329C5.83329 6.80431 5.92109 7.01627 6.07737 7.17255C6.23365 7.32883 6.44561 7.41663 6.66663 7.41663C6.88764 7.41663 7.0996 7.32883 7.25588 7.17255C7.41216 7.01627 7.49996 6.80431 7.49996 6.58329V5.74996H12.5V6.58329C12.5 6.80431 12.5878 7.01627 12.744 7.17255C12.9003 7.32883 13.1123 7.41663 13.3333 7.41663C13.5543 7.41663 13.7663 7.32883 13.9225 7.17255C14.0788 7.01627 14.1666 6.80431 14.1666 6.58329V5.74996H15.8333C16.0543 5.74996 16.2663 5.83776 16.4225 5.99404C16.5788 6.15032 16.6666 6.36228 16.6666 6.58329V9.08329Z" fill="currentColor"/>
</svg>
