<svg width="20" height="21" viewBox="0 0 20 21" fill="none" xmlns="http://www.w3.org/2000/svg">
<path d="M9.91663 0.416626C7.98827 0.416626 6.1032 0.988454 4.49983 2.0598C2.89644 3.13115 1.64676 4.65388 0.908805 6.43547C0.17085 8.21704 -0.0222319 10.1774 0.353974 12.0688C0.730179 13.9601 1.65877 15.6973 3.02233 17.0609C4.38591 18.4245 6.12319 19.353 8.01449 19.7293C9.90581 20.1054 11.8662 19.9124 13.6478 19.1745C15.4294 18.4365 16.9521 17.1868 18.0234 15.5834C19.0948 13.9801 19.6666 12.095 19.6666 10.1666C19.6666 8.88624 19.4145 7.61839 18.9245 6.43547C18.4345 5.25253 17.7162 4.17771 16.8109 3.27233C15.9056 2.36696 14.8308 1.64879 13.6478 1.1588C12.4649 0.668817 11.197 0.416626 9.91663 0.416626ZM9.91663 17.9666C8.37393 17.9666 6.86588 17.5092 5.58319 16.6521C4.30048 15.795 3.30073 14.5768 2.71037 13.1516C2.12001 11.7263 1.96555 10.158 2.26651 8.64492C2.56747 7.13187 3.31035 5.74204 4.4012 4.65119C5.49205 3.56035 6.88188 2.81747 8.39492 2.51651C9.90797 2.21553 11.4763 2.37 12.9016 2.96036C14.3268 3.55073 15.545 4.55048 16.4021 5.83317C17.2592 7.11588 17.7166 8.62393 17.7166 10.1666C17.7166 12.2353 16.8949 14.2193 15.4321 15.6821C13.9693 17.1449 11.9853 17.9666 9.91663 17.9666ZM12.9391 10.7809L10.8916 9.60112V5.29163C10.8916 5.03304 10.7889 4.78504 10.6061 4.6022C10.4232 4.41935 10.1752 4.31663 9.91663 4.31663C9.65804 4.31663 9.41005 4.41935 9.2272 4.6022C9.04435 4.78504 8.94163 5.03304 8.94163 5.29163V10.1666C8.94163 10.1666 8.94163 10.2446 8.94163 10.2836C8.9474 10.3508 8.96387 10.4166 8.99039 10.4786C9.01045 10.5365 9.0366 10.592 9.06837 10.6444C9.09505 10.6998 9.12776 10.7521 9.16588 10.8004L9.32188 10.9271L9.40963 11.0149L11.9446 12.4774C12.0932 12.5616 12.2613 12.6053 12.4321 12.6041C12.648 12.6056 12.8583 12.5355 13.03 12.4046C13.2017 12.2737 13.3251 12.0896 13.3809 11.881C13.4366 11.6724 13.4216 11.4513 13.3381 11.2522C13.2546 11.0531 13.1075 10.8873 12.9196 10.7809H12.9391Z" fill="currentColor"/>
</svg>
