<svg width="22" height="20" viewBox="0 0 22 20" fill="none" xmlns="http://www.w3.org/2000/svg">
<path d="M11.0006 13.0435C9.14598 13.0435 7.36735 12.4022 6.05596 11.2606C4.74456 10.1191 4.00781 8.57088 4.00781 6.95652V0H17.9933V6.95652C17.9933 8.57088 17.2566 10.1191 15.9452 11.2606C14.6338 12.4022 12.8552 13.0435 11.0006 13.0435ZM6.00575 1.73913V6.95652C6.00575 8.10964 6.532 9.21553 7.46871 10.0309C8.40542 10.8463 9.67587 11.3043 11.0006 11.3043C12.3253 11.3043 13.5958 10.8463 14.5325 10.0309C15.4692 9.21553 15.9954 8.10964 15.9954 6.95652V1.73913H6.00575Z" fill="#DF6951"/>
<path d="M11.9979 12.1739H10V16.5217H11.9979V12.1739Z" fill="#DF6951"/>
<path d="M15.9936 19.1304H13.9956V17.3913H8.00184V19.1304H6.00391V15.6522H15.9936V19.1304Z" fill="#DF6951"/>
<path d="M16.9935 18.2609H5.00586V20H16.9935V18.2609Z" fill="#DF6951"/>
<path d="M12.9976 2.6087H5.00586V4.34784H12.9976V2.6087Z" fill="#DF6951"/>
<path d="M5.00582 9.56522C4.33807 9.6051 3.66825 9.51997 3.04148 9.31557C2.41471 9.11118 1.84553 8.79226 1.37225 8.38029C0.898971 7.96832 0.53261 7.47286 0.297798 6.92727C0.0629868 6.38169 -0.0348241 5.79864 0.0109858 5.21739V0.869568H3.00789V2.6087H2.00892V5.21739C1.96269 5.56973 2.00843 5.9266 2.14269 6.26141C2.27695 6.59623 2.49629 6.90034 2.78436 7.1511C3.07243 7.40186 3.4218 7.59279 3.80644 7.70966C4.19107 7.82653 4.60105 7.86633 5.00582 7.82609V9.56522Z" fill="#DF6951"/>
<path d="M16.9941 9.56522V7.82609C17.3989 7.86633 17.8089 7.82653 18.1935 7.70966C18.5782 7.59279 18.9275 7.40186 19.2156 7.1511C19.5037 6.90034 19.723 6.59623 19.8573 6.26141C19.9916 5.9266 20.0373 5.56973 19.991 5.21739V2.6087H18.9921V0.869568H21.989V5.21739C22.0365 5.79898 21.9398 6.38266 21.7056 6.92891C21.4714 7.47516 21.1051 7.97123 20.6314 8.38351C20.1578 8.7958 19.5879 9.11467 18.9604 9.31855C18.3328 9.52243 17.6623 9.60655 16.9941 9.56522Z" fill="#DF6951"/>
</svg>
