<svg width="76" height="75" viewBox="0 0 76 75" fill="none" xmlns="http://www.w3.org/2000/svg">
<path d="M73.6812 34.2575C65.9202 31.0887 58.1691 27.8939 50.4139 24.709C48.3534 23.8635 46.9151 24.8781 46.9151 27.1711C46.9131 37.3114 46.9151 47.4517 46.9151 57.594V58.3228H51.453V57.5638C51.453 55.3997 51.4687 53.2355 51.4433 51.0714C51.4374 50.558 51.5724 50.2822 52.0479 50.0406C59.1886 46.4169 66.3116 42.759 73.4523 39.1353C74.3289 38.6904 75.096 38.1892 75.5285 37.2591V36.0512C75.1626 35.1815 74.5559 34.6138 73.6812 34.2575ZM53.1223 43.8924V31.6343L66.5778 36.2847L53.1223 43.8924Z" fill="white"/>
<path d="M28.1935 14.4402C28.1563 17.3815 27.4166 20.1134 25.9587 22.6299C22.4422 28.6976 18.9159 34.7593 15.3856 40.817C14.6792 42.0289 13.6499 42.0128 12.9454 40.7847C9.49347 34.7653 5.98477 28.7801 2.62089 22.7084C-0.357488 17.3312 -0.602098 11.8392 2.7383 6.50832C5.85953 1.5277 11.7752 -0.8398 17.3171 0.480847C22.9725 1.82968 27.1837 6.49824 27.9997 12.3385C28.0976 13.035 28.1308 13.7397 28.1935 14.4402ZM14.0863 22.0803C17.9883 22.1548 21.2387 18.9055 21.3385 14.8348C21.4344 10.8689 18.2486 7.44041 14.3916 7.35989C10.3506 7.27533 7.05715 10.5005 6.99844 14.5953C6.93973 18.6699 10.0962 22.0038 14.0863 22.0803Z" fill="white"/>
<path d="M18.0972 45.2578C18.9954 43.7097 19.8095 42.2844 20.6588 40.8812C20.7566 40.7182 21.0521 40.6014 21.2556 40.6014C24.2144 40.5873 27.1752 40.533 30.132 40.6155C34.7444 40.7443 38.3216 44.678 38.2688 49.4492C38.2179 54.0975 34.5389 57.9265 29.9677 57.9587C23.1694 58.007 16.3712 57.9668 9.57107 57.9768C7.31478 57.9808 5.5438 59.3639 5.07806 61.4434C4.44403 64.2739 6.44592 66.9494 9.26971 66.9917C11.6649 67.0279 14.0621 66.9997 16.4593 66.9997C23.6743 66.9997 30.8874 66.9997 38.1024 66.9997C38.3881 66.9997 38.6758 66.9997 38.8989 66.9997C38.9791 68.578 39.0554 70.0718 39.1357 71.634C39.0065 71.64 38.7756 71.6642 38.5447 71.6642C28.8366 71.6662 19.1265 71.6722 9.41843 71.6621C4.67886 71.6581 0.931428 68.0969 0.440251 63.1727C-0.00200489 58.7338 3.14271 54.4679 7.59266 53.5177C8.30496 53.3667 9.04858 53.3245 9.77849 53.3224C16.3321 53.3083 22.8877 53.3023 29.4413 53.3224C30.9422 53.3265 32.1926 52.8614 33.0497 51.567C33.9029 50.2806 34.0008 48.8794 33.3218 47.4884C32.629 46.0691 31.4608 45.284 29.9129 45.2699C26.2946 45.2357 22.6744 45.2558 19.0541 45.2558C18.786 45.2578 18.5179 45.2578 18.0972 45.2578Z" fill="white"/>
<path d="M43.4831 68.7711C43.4988 65.5018 46.0525 62.8989 49.2363 62.909C52.4026 62.919 54.9759 65.5824 54.9544 68.8235C54.9328 72.0686 52.338 74.7098 49.1835 74.6997C46.0251 74.6896 43.4674 72.0303 43.4831 68.7711Z" fill="white"/>
<path d="M14.1566 12.0205C15.6301 12.0145 16.8258 13.2406 16.8101 14.7425C16.7945 16.2041 15.6008 17.4262 14.1801 17.4342C12.7241 17.4423 11.5285 16.2001 11.5383 14.6921C11.5481 13.2064 12.7046 12.0266 14.1566 12.0205Z" fill="white"/>
</svg>
