<svg width="44" height="44" viewBox="0 0 44 44" fill="none" xmlns="http://www.w3.org/2000/svg">
<path d="M40.613 25.8292C39.5988 27.0438 39.1017 28.629 39.2409 30.2143C39.4994 33.1376 37.6301 35.7934 34.8859 36.4316C33.3746 36.7815 32.082 37.7697 31.2866 39.1491C29.8349 41.6607 26.8322 42.69 24.2272 41.5166C22.8153 40.8784 21.2046 40.8784 19.7728 41.5166C17.1877 42.6694 14.1651 41.6607 12.7134 39.1491C11.918 37.7697 10.6254 36.8021 9.1141 36.4521C6.36988 35.8139 4.50063 33.1582 4.75914 30.2348C4.89834 28.629 4.40119 27.0644 3.38702 25.8498C1.53766 23.647 1.53766 20.353 3.38702 18.1708C4.40119 16.9562 4.89834 15.371 4.75914 13.7857C4.50063 10.8624 6.36988 8.20664 9.1141 7.56844C10.6254 7.21846 11.918 6.23028 12.7134 4.85095C14.1651 2.33932 17.1678 1.30996 19.7728 2.48343C21.1847 3.12163 22.7954 3.12163 24.2272 2.48343C26.8123 1.33055 29.8349 2.33932 31.2866 4.85095C32.082 6.23028 33.3746 7.19788 34.8859 7.54786C37.6301 8.18606 39.4994 10.8418 39.2409 13.7652C39.1017 15.371 39.5988 16.9356 40.613 18.1502C42.4623 20.353 42.4623 23.647 40.613 25.8292Z" stroke="currentColor" stroke-width="3" stroke-linecap="round" stroke-linejoin="round"/>
<path d="M16.0137 28.1761L27.9451 15.8239" stroke="currentColor" stroke-width="3" stroke-linecap="round" stroke-linejoin="round"/>
<path d="M17.0082 19.9413C18.6556 19.9413 19.9911 18.5587 19.9911 16.8532C19.9911 15.1477 18.6556 13.7651 17.0082 13.7651C15.3609 13.7651 14.0254 15.1477 14.0254 16.8532C14.0254 18.5587 15.3609 19.9413 17.0082 19.9413Z" stroke="currentColor" stroke-width="3" stroke-linecap="round" stroke-linejoin="round"/>
<path d="M26.9516 30.2348C28.599 30.2348 29.9344 28.8523 29.9344 27.1468C29.9344 25.4413 28.599 24.0587 26.9516 24.0587C25.3042 24.0587 23.9688 25.4413 23.9688 27.1468C23.9688 28.8523 25.3042 30.2348 26.9516 30.2348Z" stroke="currentColor" stroke-width="3" stroke-linecap="round" stroke-linejoin="round"/>
</svg>
