<svg width="26" height="24" viewBox="0 0 26 24" fill="none" xmlns="http://www.w3.org/2000/svg">
<path d="M0.8125 15.0879C1.02799 15.0879 1.23465 15.1735 1.38702 15.3259C1.5394 15.4782 1.625 15.6849 1.625 15.9004V19.9629C1.625 20.3939 1.7962 20.8072 2.10095 21.1119C2.4057 21.4167 2.81902 21.5879 3.25 21.5879H22.75C23.181 21.5879 23.5943 21.4167 23.899 21.1119C24.2038 20.8072 24.375 20.3939 24.375 19.9629V15.9004C24.375 15.6849 24.4606 15.4782 24.613 15.3259C24.7653 15.1735 24.972 15.0879 25.1875 15.0879C25.403 15.0879 25.6097 15.1735 25.762 15.3259C25.9144 15.4782 26 15.6849 26 15.9004V19.9629C26 20.8248 25.6576 21.6515 25.0481 22.261C24.4386 22.8705 23.612 23.2129 22.75 23.2129H3.25C2.38805 23.2129 1.5614 22.8705 0.951903 22.261C0.34241 21.6515 0 20.8248 0 19.9629V15.9004C0 15.6849 0.0856024 15.4782 0.237976 15.3259C0.390349 15.1735 0.597012 15.0879 0.8125 15.0879Z" fill="black"/>
<path d="M13.5752 18.2613C13.4997 18.337 13.4101 18.397 13.3114 18.438C13.2126 18.4789 13.1068 18.5 12.9999 18.5C12.8931 18.5 12.7873 18.4789 12.6885 18.438C12.5898 18.397 12.5002 18.337 12.4247 18.2613L7.5497 13.3863C7.39713 13.2337 7.31142 13.0268 7.31142 12.811C7.31142 12.5953 7.39713 12.3884 7.5497 12.2358C7.70227 12.0832 7.90919 11.9975 8.12495 11.9975C8.34071 11.9975 8.54763 12.0832 8.7002 12.2358L12.1875 15.7247L12.1875 1.43605C12.1875 1.22056 12.2731 1.01389 12.4254 0.861522C12.5778 0.70915 12.7845 0.623548 13 0.623548C13.2154 0.623548 13.4221 0.70915 13.5745 0.861522C13.7268 1.01389 13.8125 1.22056 13.8125 1.43605L13.8125 15.7247L17.2997 12.2358C17.3752 12.1603 17.4649 12.1003 17.5636 12.0594C17.6623 12.0186 17.7681 11.9975 17.875 11.9975C17.9818 11.9975 18.0876 12.0186 18.1863 12.0594C18.285 12.1003 18.3747 12.1603 18.4502 12.2358C18.5257 12.3113 18.5857 12.401 18.6266 12.4997C18.6674 12.5984 18.6885 12.7042 18.6885 12.811C18.6885 12.9179 18.6674 13.0237 18.6266 13.1224C18.5857 13.2211 18.5257 13.3108 18.4502 13.3863L13.5752 18.2613Z" fill="black"/>
</svg>
