<svg width="13" height="13" viewBox="0 0 13 13" fill="none" xmlns="http://www.w3.org/2000/svg">
<path d="M6.17538 3.60547C7.89803 3.60547 9.31991 5.02734 9.31991 6.75C9.31991 8.5 7.89803 9.89453 6.17538 9.89453C4.42538 9.89453 3.03085 8.5 3.03085 6.75C3.03085 5.02734 4.42538 3.60547 6.17538 3.60547ZM6.17538 8.80078C7.29647 8.80078 8.19882 7.89844 8.19882 6.75C8.19882 5.62891 7.29647 4.72656 6.17538 4.72656C5.02694 4.72656 4.1246 5.62891 4.1246 6.75C4.1246 7.89844 5.05428 8.80078 6.17538 8.80078ZM10.1676 3.49609C10.1676 3.90625 9.83944 4.23438 9.42928 4.23438C9.01913 4.23438 8.691 3.90625 8.691 3.49609C8.691 3.08594 9.01913 2.75781 9.42928 2.75781C9.83944 2.75781 10.1676 3.08594 10.1676 3.49609ZM12.2457 4.23438C12.3004 5.24609 12.3004 8.28125 12.2457 9.29297C12.191 10.2773 11.9723 11.125 11.2613 11.8633C10.5504 12.5742 9.67538 12.793 8.691 12.8477C7.67928 12.9023 4.64413 12.9023 3.63241 12.8477C2.64803 12.793 1.80038 12.5742 1.0621 11.8633C0.35116 11.125 0.13241 10.2773 0.0777221 9.29297C0.0230346 8.28125 0.0230346 5.24609 0.0777221 4.23438C0.13241 3.25 0.35116 2.375 1.0621 1.66406C1.80038 0.953125 2.64803 0.734375 3.63241 0.679688C4.64413 0.625 7.67928 0.625 8.691 0.679688C9.67538 0.734375 10.5504 0.953125 11.2613 1.66406C11.9723 2.375 12.191 3.25 12.2457 4.23438ZM10.9332 10.3594C11.2613 9.56641 11.1793 7.65234 11.1793 6.75C11.1793 5.875 11.2613 3.96094 10.9332 3.14062C10.7144 2.62109 10.3043 2.18359 9.78475 1.99219C8.96444 1.66406 7.05038 1.74609 6.17538 1.74609C5.27303 1.74609 3.35897 1.66406 2.566 1.99219C2.01913 2.21094 1.60897 2.62109 1.39022 3.14062C1.0621 3.96094 1.14413 5.875 1.14413 6.75C1.14413 7.65234 1.0621 9.56641 1.39022 10.3594C1.60897 10.9062 2.01913 11.3164 2.566 11.5352C3.35897 11.8633 5.27303 11.7812 6.17538 11.7812C7.05038 11.7812 8.96444 11.8633 9.78475 11.5352C10.3043 11.3164 10.7418 10.9062 10.9332 10.3594Z" fill="#DF6951"/>
</svg>
