<svg width="22" height="22" viewBox="0 0 22 22" fill="none" xmlns="http://www.w3.org/2000/svg">
<g clip-path="url(#clip0_715_408)">
<path d="M1.375 11.6875C1.375 10.5484 2.29841 9.625 3.4375 9.625C4.57659 9.625 5.5 10.5484 5.5 11.6875V18.5625C5.5 19.7016 4.57659 20.625 3.4375 20.625C2.29841 20.625 1.375 19.7016 1.375 18.5625V11.6875Z" stroke="currentColor" stroke-width="2" stroke-linejoin="round"/>
<path d="M5.5 12.4424C5.5 11.907 5.5 11.6394 5.54952 11.382C5.59347 11.1535 5.66622 10.9316 5.76603 10.7215C5.87851 10.4847 6.03698 10.269 6.35392 9.83753L12.3738 1.6424C12.4973 1.47429 12.6935 1.375 12.9021 1.375C14.3499 1.375 15.5237 2.54874 15.5237 3.99662V8.59375H15.8147C17.4834 8.59375 18.3178 8.59375 18.9321 8.9277C19.4717 9.22108 19.8976 9.68669 20.1419 10.2503C20.4199 10.8918 20.3457 11.7229 20.1973 13.385L19.9089 16.6162C19.7826 18.0311 19.7194 18.7385 19.4033 19.2737C19.125 19.7449 18.7123 20.1224 18.2182 20.3577C17.6571 20.625 16.9468 20.625 15.5263 20.625H9.9C8.35986 20.625 7.58978 20.625 7.00153 20.3253C6.48408 20.0616 6.06338 19.6409 5.79973 19.1235C5.5 18.5352 5.5 17.7651 5.5 16.225V12.4424Z" stroke="currentColor" stroke-width="2" stroke-linejoin="round"/>
</g>
<defs>
<clipPath id="clip0_715_408">
<rect width="22" height="22" fill="white"/>
</clipPath>
</defs>
</svg>
