<svg width="8" height="10" viewBox="0 0 8 10" fill="none" xmlns="http://www.w3.org/2000/svg">
<path d="M6.91667 4.16668H7.33333C7.56346 4.16668 7.75 4.35322 7.75 4.58334V8.75001C7.75 8.98013 7.56346 9.16668 7.33333 9.16668H0.666667C0.43655 9.16668 0.25 8.98013 0.25 8.75001V4.58334C0.25 4.35322 0.43655 4.16668 0.666667 4.16668H1.08333V3.75001C1.08333 2.13918 2.38917 0.833344 4 0.833344C5.61083 0.833344 6.91667 2.13918 6.91667 3.75001V4.16668ZM1.08333 5.00001V8.33334H6.91667V5.00001H1.08333ZM3.58333 5.83334H4.41667V7.50001H3.58333V5.83334ZM6.08333 4.16668V3.75001C6.08333 2.59942 5.15058 1.66668 4 1.66668C2.84941 1.66668 1.91667 2.59942 1.91667 3.75001V4.16668H6.08333Z" fill="currentColor"/>
</svg>
