<svg width="72" height="75" viewBox="0 0 72 75" fill="none" xmlns="http://www.w3.org/2000/svg">
<path d="M58.2013 61.0292V61.0292C61.8117 61.0292 63.6169 61.0292 64.9732 60.1435C65.4957 59.8023 65.9594 59.3749 66.342 58.8819C67.335 57.6021 67.4818 55.8029 67.7754 52.2044L68.5027 43.2903M58.2013 61.0292C57.9348 64.2949 55.3404 66.9422 52.4064 66.9422C49.4724 66.9422 47.3098 64.2949 47.5763 61.0292M58.2013 61.0292C58.4677 57.7636 56.3052 55.1163 53.3712 55.1163C50.4372 55.1163 47.8427 57.7636 47.5763 61.0292M64.785 25.5514L59.6271 13.8954C59.1657 12.8528 58.935 12.3315 58.4808 12.043C58.0266 11.7545 57.4365 11.7545 56.2563 11.7545H51.2941M64.785 25.5514L68.7621 34.539C68.953 34.9706 69.0485 35.1864 69.0871 35.4205C69.1256 35.6546 69.1058 35.898 69.066 36.3849L68.5027 43.2903M64.785 25.5514H59.3249C58.3469 25.5514 57.4821 26.4339 57.3933 27.5224L56.4284 39.3483C56.2508 41.5254 57.6925 43.2903 59.6485 43.2903H68.5027M51.2941 11.7545C50.7521 9.45791 48.9186 7.81251 46.6055 7.81251H21.3333C21.3333 7.81251 10.7085 7.81249 8.93763 7.81251C5.39597 7.81255 5.39597 11.7708 5.39597 11.7708M51.2941 11.7545C51.4395 12.371 51.4919 13.0344 51.4355 13.7255L49.6667 35.4064C49.4003 38.672 46.8058 41.3193 43.8718 41.3193H4.14264C3.67123 41.3193 3.43553 41.3193 3.27717 41.4653C3.11882 41.6113 3.09965 41.8462 3.06132 42.316L2.49942 49.2033C1.96657 55.7346 6.29158 61.0292 12.1596 61.0292H17.4721M47.5763 61.0292H28.0971M28.0971 61.0292C27.8307 64.2949 25.2362 66.9422 22.3022 66.9422C19.3682 66.9422 17.2057 64.2949 17.4721 61.0292M28.0971 61.0292C28.3635 57.7636 26.201 55.1163 23.267 55.1163C20.333 55.1163 17.7385 57.7636 17.4721 61.0292" stroke="white" stroke-width="4" stroke-linecap="round"/>
<path d="M1.85416 33.5416H8.9375" stroke="white" stroke-width="2" stroke-linecap="round"/>
<path d="M1.85416 25.625H12.4792" stroke="white" stroke-width="2" stroke-linecap="round"/>
<path d="M1.85416 17.7084H16.0208" stroke="white" stroke-width="2" stroke-linecap="round"/>
<path d="M30.624 16.9459C30.4597 17.3081 30.4222 17.7672 30.3473 18.6856L30.1942 20.562C30.1906 20.6066 30.1887 20.6289 30.1752 20.6427C30.1616 20.6566 30.1416 20.6566 30.1015 20.6566H28.4156C27.5905 20.6566 27.178 20.6566 26.8403 20.8066C26.3901 21.0067 26.0141 21.3904 25.7949 21.8733C25.6306 22.2355 25.5931 22.6947 25.5182 23.6131C25.4433 24.5315 25.4058 24.9906 25.5111 25.3528C25.6514 25.8358 25.9648 26.2195 26.3824 26.4195C26.6956 26.5696 27.1081 26.5696 27.9332 26.5696H29.6191C29.6591 26.5696 29.6792 26.5696 29.6905 26.5834C29.7018 26.5973 29.7 26.6196 29.6964 26.6642L29.5433 28.5406C29.4683 29.4589 29.4309 29.9181 29.5361 30.2803C29.6765 30.7633 29.9899 31.147 30.4075 31.347C30.7207 31.497 31.1332 31.497 31.9583 31.497C32.7834 31.497 33.196 31.497 33.5336 31.347C33.9839 31.147 34.3599 30.7633 34.579 30.2803C34.7434 29.9181 34.7808 29.4589 34.8558 28.5406L35.0089 26.6642C35.0125 26.6196 35.0143 26.5973 35.0279 26.5834C35.0415 26.5696 35.0615 26.5696 35.1016 26.5696H36.7874C37.6125 26.5696 38.0251 26.5696 38.3627 26.4195C38.813 26.2195 39.189 25.8358 39.4081 25.3528C39.5725 24.9906 39.6099 24.5315 39.6849 23.6131C39.7598 22.6947 39.7972 22.2355 39.692 21.8733C39.5517 21.3904 39.2382 21.0067 38.8207 20.8066C38.5075 20.6566 38.0949 20.6566 37.2698 20.6566H35.584C35.5439 20.6566 35.5239 20.6566 35.5126 20.6427C35.5012 20.6289 35.5031 20.6066 35.5067 20.562L35.6598 18.6856C35.7347 17.7672 35.7722 17.3081 35.6669 16.9459C35.5266 16.4629 35.2132 16.0792 34.7956 15.8792C34.4824 15.7291 34.0698 15.7291 33.2447 15.7291C32.4196 15.7291 32.0071 15.7291 31.6694 15.8792C31.2192 16.0792 30.8432 16.4629 30.624 16.9459Z" stroke="white" stroke-width="3"/>
</svg>
