<svg width="20" height="20" viewBox="0 0 20 20" fill="none" xmlns="http://www.w3.org/2000/svg">
<path d="M2.10892 12.308C1.93171 13.4697 2.72399 14.276 3.69403 14.6778C7.41299 16.2185 12.5883 16.2185 16.3072 14.6778C17.2773 14.276 18.0696 13.4697 17.8924 12.308C17.7835 11.5941 17.245 10.9996 16.846 10.4191C16.3234 9.64942 16.2715 8.80984 16.2714 7.91667C16.2714 4.46489 13.4639 1.66667 10.0007 1.66667C6.53743 1.66667 3.72993 4.46489 3.72993 7.91667C3.72984 8.80984 3.67792 9.64942 3.15533 10.4191C2.75635 10.9996 2.21783 11.5941 2.10892 12.308Z" stroke="currentColor" stroke-linecap="round" stroke-linejoin="round"/>
<path d="M6.66602 15.8333C7.04809 17.271 8.3956 18.3333 9.99935 18.3333C11.6031 18.3333 12.9506 17.271 13.3327 15.8333" stroke="currentColor" stroke-linecap="round" stroke-linejoin="round"/>
</svg>
