<svg width="186" height="133" viewBox="0 0 186 133" fill="none" xmlns="http://www.w3.org/2000/svg">
<g filter="url(#filter0_d_60_97)">
<path fill-rule="evenodd" clip-rule="evenodd" d="M52.3875 84.65H44.1557C43.5924 84.65 43.1133 85.0594 43.0255 85.6153L39.6961 106.724C39.63 107.141 39.9525 107.516 40.375 107.516H44.305C44.8683 107.516 45.3474 107.107 45.4352 106.55L46.3332 100.856C46.4198 100.299 46.9001 99.8901 47.4622 99.8901H50.0681C55.4907 99.8901 58.62 97.2659 59.4377 92.0662C59.8059 89.7913 59.4533 88.0038 58.3877 86.7517C57.218 85.3775 55.1425 84.65 52.3875 84.65ZM53.3372 92.3597C52.8872 95.3136 50.6303 95.3136 48.448 95.3136H47.2058L48.0773 89.7969C48.129 89.4638 48.4179 89.2181 48.7549 89.2181H49.3243C50.8108 89.2181 52.2132 89.2181 52.9379 90.0654C53.3696 90.5711 53.5021 91.322 53.3372 92.3597ZM76.9944 92.265H73.0524C72.7165 92.265 72.4263 92.5107 72.3745 92.8443L72.2001 93.9467L71.9244 93.5473C71.0711 92.3085 69.1683 91.8946 67.2689 91.8946C62.9124 91.8946 59.1921 95.1938 58.4674 99.8221C58.0909 102.13 58.6261 104.338 59.9357 105.877C61.1372 107.293 62.8561 107.883 64.901 107.883C68.4107 107.883 70.3575 105.626 70.3575 105.626L70.1815 106.721C70.1152 107.14 70.4377 107.516 70.8577 107.516H74.4087C74.9735 107.516 75.4498 107.106 75.5389 106.549L77.6695 93.0571C77.7369 92.6421 77.4155 92.265 76.9944 92.265ZM71.4994 99.9374C71.119 102.189 69.3315 103.701 67.0522 103.701C65.9075 103.701 64.9923 103.334 64.4052 102.638C63.8226 101.948 63.6009 100.964 63.7864 99.8689C64.1417 97.6358 65.9593 96.075 68.2041 96.075C69.3231 96.075 70.2333 96.4466 70.8327 97.1484C71.4331 97.8575 71.6715 98.8468 71.4994 99.9374ZM94.0275 92.2645H97.989C98.5438 92.2645 98.8674 92.8867 98.5522 93.3417L85.377 112.359C85.1636 112.668 84.8122 112.851 84.4367 112.851H80.4802C79.9232 112.851 79.5979 112.224 79.9204 111.767L84.0229 105.977L79.6597 93.1719C79.5088 92.7268 79.8374 92.2645 80.3109 92.2645H84.2033C84.7091 92.2645 85.1553 92.5965 85.3012 93.0805L87.6168 100.814L93.0806 92.7663C93.2945 92.4522 93.6498 92.2645 94.0275 92.2645Z" fill="#253B80"/>
<path fill-rule="evenodd" clip-rule="evenodd" d="M136.976 106.724L140.354 85.2291C140.406 84.8954 140.695 84.6498 141.031 84.6487H144.834C145.254 84.6487 145.577 85.0252 145.51 85.4419L142.179 106.55C142.092 107.107 141.613 107.516 141.049 107.516H137.652C137.232 107.516 136.909 107.141 136.976 106.724ZM111.103 84.6498H102.869C102.307 84.6498 101.828 85.0592 101.74 85.6151L98.411 106.724C98.3447 107.141 98.6672 107.516 99.0878 107.516H103.312C103.705 107.516 104.041 107.23 104.102 106.84L105.047 100.856C105.134 100.299 105.614 99.8898 106.176 99.8898H108.78C114.204 99.8898 117.333 97.2657 118.151 92.0659C118.521 89.7911 118.166 88.0036 117.101 86.7514C115.931 85.3773 113.858 84.6498 111.103 84.6498ZM112.052 92.3595C111.603 95.3134 109.346 95.3134 107.163 95.3134H105.922L106.795 89.7967C106.846 89.4636 107.133 89.2179 107.471 89.2179H108.04C109.526 89.2179 110.929 89.2179 111.654 90.0651C112.086 90.5709 112.217 91.3218 112.052 92.3595ZM135.707 92.2648H131.768C131.429 92.2648 131.142 92.5104 131.091 92.8441L130.917 93.9464L130.64 93.5471C129.787 92.3082 127.885 91.8944 125.986 91.8944C121.629 91.8944 117.91 95.1936 117.185 99.8219C116.81 102.13 117.343 104.338 118.653 105.877C119.856 107.293 121.573 107.882 123.618 107.882C127.128 107.882 129.074 105.625 129.074 105.625L128.898 106.721C128.832 107.14 129.155 107.515 129.577 107.515H133.127C133.689 107.515 134.168 107.106 134.256 106.549L136.387 93.0569C136.453 92.6419 136.13 92.2648 135.707 92.2648ZM130.213 99.9372C129.835 102.189 128.045 103.701 125.765 103.701C124.623 103.701 123.706 103.334 123.118 102.638C122.535 101.947 122.317 100.964 122.5 99.8687C122.857 97.6356 124.672 96.0748 126.917 96.0748C128.037 96.0748 128.946 96.4463 129.546 97.1482C130.149 97.8573 130.387 98.8465 130.213 99.9372Z" fill="#179BD7"/>
<path d="M82.8503 77.0986L83.8624 70.6706L81.6081 70.6183H70.8438L78.3245 23.1847C78.3474 23.0415 78.4231 22.9079 78.5334 22.8131C78.6437 22.7183 78.7852 22.6661 78.9322 22.6661H97.0827C103.109 22.6661 107.267 23.92 109.438 26.3949C110.456 27.5559 111.104 28.7692 111.418 30.1043C111.746 31.5054 111.752 33.1791 111.431 35.2206L111.408 35.3696V36.6777L112.426 37.2543C113.283 37.709 113.964 38.2296 114.486 38.8256C115.357 39.8182 115.921 41.0799 116.158 42.5757C116.404 44.114 116.323 45.9446 115.921 48.017C115.456 50.401 114.705 52.4773 113.691 54.1762C112.758 55.7417 111.57 57.0398 110.16 58.0464C108.813 59.0022 107.213 59.728 105.403 60.1925C103.65 60.6487 101.651 60.8793 99.4589 60.8793H98.0463C97.0364 60.8793 96.055 61.2431 95.2852 61.8954C94.5131 62.561 94.0018 63.47 93.8453 64.4649L93.7389 65.0436L91.9509 76.3728L91.8695 76.7889C91.8484 76.9209 91.8116 76.9867 91.7576 77.0312C91.7091 77.0713 91.6395 77.0986 91.5715 77.0986H82.8503Z" fill="#253B80"/>
<path d="M113.39 35.5212C113.336 35.8675 113.274 36.2216 113.204 36.5854C110.81 48.8749 102.621 53.1204 92.1623 53.1204H86.8372C85.5583 53.1204 84.4805 54.0491 84.2811 55.3108L81.5545 72.6025L80.7824 77.5037C80.6526 78.332 81.2915 79.0789 82.1271 79.0789H91.5724C92.6909 79.0789 93.6406 78.2662 93.8167 77.1633L93.9097 76.6832L95.6882 65.398L95.8024 64.7792C95.9762 63.6724 96.9282 62.8597 98.0467 62.8597H99.4593C108.61 62.8597 115.774 59.1443 117.868 48.393C118.742 43.9018 118.289 40.1517 115.975 37.5142C115.275 36.7189 114.406 36.0591 113.39 35.5212Z" fill="#179BD7"/>
<path d="M110.884 34.5232C110.519 34.4168 110.141 34.32 109.754 34.2329C109.365 34.1478 108.966 34.0724 108.556 34.0066C107.12 33.7744 105.547 33.6641 103.862 33.6641H89.6356C89.2852 33.6641 88.9527 33.7434 88.6547 33.8866C87.9985 34.202 87.5111 34.8232 87.393 35.5836L84.3662 54.7521L84.2793 55.3113C84.4787 54.0497 85.5565 53.1208 86.8355 53.1208H92.1606C102.62 53.1208 110.809 48.8735 113.203 36.586C113.274 36.2222 113.334 35.8681 113.388 35.5217C112.783 35.2005 112.126 34.9257 111.42 34.6915C111.246 34.6335 111.066 34.5774 110.884 34.5232Z" fill="#222D65"/>
<path d="M87.3942 35.5834C87.5123 34.8229 88.0003 34.2018 88.6559 33.8883C88.9561 33.7451 89.287 33.6658 89.6368 33.6658H103.864C105.549 33.6658 107.122 33.776 108.558 34.0083C108.968 34.0741 109.367 34.1495 109.756 34.2346C110.143 34.3218 110.52 34.4185 110.886 34.5249C111.068 34.5791 111.247 34.6352 111.423 34.6913C112.13 34.9255 112.786 35.2022 113.391 35.5215C114.104 30.9799 113.386 27.8877 110.931 25.0877C108.223 22.0052 103.337 20.6855 97.0852 20.6855H78.9342C77.657 20.6855 76.568 21.6143 76.3703 22.8779L68.8104 70.7991C68.6611 71.7472 69.3925 72.6028 70.3483 72.6028H81.5544L84.3679 54.7519L87.3942 35.5834Z" fill="#253B80"/>
</g>
<defs>
<filter id="filter0_d_60_97" x="-20" y="-16" width="225.209" height="167" filterUnits="userSpaceOnUse" color-interpolation-filters="sRGB">
<feFlood flood-opacity="0" result="BackgroundImageFix"/>
<feColorMatrix in="SourceAlpha" type="matrix" values="0 0 0 0 0 0 0 0 0 0 0 0 0 0 0 0 0 0 127 0" result="hardAlpha"/>
<feOffset/>
<feGaussianBlur stdDeviation="10"/>
<feComposite in2="hardAlpha" operator="out"/>
<feColorMatrix type="matrix" values="0 0 0 0 0 0 0 0 0 0 0 0 0 0 0 0 0 0 0.07 0"/>
<feBlend mode="normal" in2="BackgroundImageFix" result="effect1_dropShadow_60_97"/>
<feBlend mode="normal" in="SourceGraphic" in2="effect1_dropShadow_60_97" result="shape"/>
</filter>
</defs>
</svg>
