<svg width="77" height="76" viewBox="0 0 77 76" fill="none" xmlns="http://www.w3.org/2000/svg">
<path d="M73.7991 58.3706C76.2643 58.4602 76.0506 58.4974 76.0616 60.7894C76.066 61.9081 76.0749 63.029 76.0572 64.1477C76.044 65.0588 75.7796 65.3122 74.8632 65.3144C72.7175 65.3232 70.5717 65.3166 68.6243 65.3166C67.9325 66.6866 67.3024 67.9364 66.6658 69.2015C66.7297 69.2058 66.9566 69.2408 67.1835 69.2408C69.6883 69.2452 72.1953 69.2408 74.7002 69.2452C75.8017 69.2473 76.055 69.4986 76.0594 70.602C76.066 71.8584 76.0726 73.1147 76.0572 74.3711C76.044 75.2756 75.7752 75.5225 74.8566 75.5509C74.6649 75.5575 74.4711 75.5531 74.2794 75.5531C50.4053 75.5531 26.5312 75.5531 2.65714 75.5531C2.4104 75.5531 2.16146 75.5509 1.91473 75.5509C1.19654 75.5466 0.859481 75.1686 0.857278 74.4759C0.855075 73.1387 0.844062 71.7994 0.859483 70.4622C0.868295 69.5314 1.15909 69.2539 2.113 69.2495C4.56275 69.243 7.01471 69.2473 9.46446 69.2473C9.76628 69.2473 10.0659 69.2473 10.284 69.2473C9.6407 67.9888 8.99742 66.7259 8.27924 65.3232C6.41549 65.3232 4.32703 65.3253 2.23857 65.3232C1.06436 65.321 0.859482 65.1156 0.855076 63.9292C0.85067 62.6182 0.852873 61.3072 0.855076 59.9962C0.857279 58.611 1.03132 58.4384 2.4104 58.4274C2.60207 58.4253 2.79373 58.4274 3.11757 58.4274C3.11757 58.0844 3.11757 57.7698 3.11757 57.4551C3.11757 48.6607 3.11757 39.8662 3.11757 31.074C3.11757 29.8045 3.33347 29.586 4.58919 29.586C19.8451 29.586 35.0988 29.5729 50.3546 29.5904C61.6253 29.6035 70.7854 36.827 73.2197 47.6622C73.5921 49.3227 73.6934 51.0576 73.7815 52.764C73.8718 54.6081 73.7991 56.4632 73.7991 58.3706ZM28.3707 53.4195C42.9745 53.4195 57.466 53.4195 71.9112 53.4195C71.9112 52.3336 71.9112 51.311 71.9112 50.2339C71.4816 50.2339 71.1533 50.2339 70.8251 50.2339C65.4277 50.2339 60.0325 50.2229 54.6351 50.2382C52.9212 50.2426 51.617 49.515 50.6256 48.1844C49.8017 47.0788 49.3611 45.8224 49.3479 44.4481C49.3236 42.0993 49.3324 39.7504 49.328 37.4038C49.328 37.1132 49.328 36.8226 49.328 36.5058C34.4731 36.5058 19.7305 36.5058 4.97251 36.5058C4.97251 42.1779 4.97251 47.8064 4.97251 53.437C8.06114 53.437 11.0793 53.437 14.1943 53.437C14.1943 53.1027 14.1943 52.8121 14.1943 52.5193C14.1943 48.641 14.1921 44.7627 14.1965 40.8866C14.1987 39.9274 14.4763 39.6193 15.3928 39.6172C19.3296 39.6084 23.2686 39.6062 27.2053 39.6172C28.0844 39.6193 28.3663 39.9274 28.3685 40.8298C28.3774 43.0956 28.3707 45.3636 28.3707 47.6294C28.3707 49.539 28.3707 51.4465 28.3707 53.4195ZM71.5454 48.4924C71.5454 48.2958 71.5543 48.215 71.5432 48.1385C71.5212 47.9768 71.5014 47.8129 71.4617 47.6534C70.4175 43.3993 68.2762 39.781 65.0003 36.8444C64.7337 36.6063 64.2711 36.4817 63.8988 36.4796C59.9091 36.4533 55.9173 36.4621 51.9276 36.4664C51.6632 36.4664 51.3989 36.4949 51.0662 36.5145C51.0662 37.4737 51.0552 38.3695 51.0684 39.2654C51.0971 41.2012 51.02 43.148 51.205 45.0708C51.4231 47.33 52.8771 48.4924 55.1396 48.4924C60.2858 48.4946 65.4321 48.4924 70.5805 48.4924C70.8757 48.4924 71.1753 48.4924 71.5454 48.4924ZM26.5268 58.3925C26.5268 52.6788 26.5268 47.0482 26.5268 41.4285C22.9844 41.4285 19.5058 41.4285 16.0383 41.4285C16.0383 47.1159 16.0383 52.7466 16.0383 58.3925C19.5565 58.3925 23.0152 58.3925 26.5268 58.3925ZM71.9816 55.2614C57.4506 55.2614 42.9547 55.2614 28.4214 55.2614C28.4214 56.319 28.4214 57.3371 28.4214 58.3706C42.9657 58.3706 57.4594 58.3706 71.9816 58.3706C71.9816 57.3175 71.9816 56.3146 71.9816 55.2614ZM55.0449 65.3472C44.043 65.3472 32.8693 65.3472 21.8785 65.3472C21.1911 66.704 20.5478 67.9691 19.9376 69.1752C32.2525 69.1752 44.6929 69.1752 56.9637 69.1752C56.3424 67.9386 55.7168 66.6888 55.0449 65.3472ZM14.1613 55.2658C11.0286 55.2658 7.99505 55.2658 4.9637 55.2658C4.9637 56.3408 4.9637 57.359 4.9637 58.3706C8.06114 58.3706 11.0947 58.3706 14.1613 58.3706C14.1613 57.3218 14.1613 56.3233 14.1613 55.2658ZM19.7393 65.3822C16.5956 65.3822 13.5092 65.3822 10.4118 65.3822C10.8898 67.7922 12.8902 69.3304 15.3597 69.2386C17.5385 69.1599 19.5168 67.4295 19.7393 65.3822ZM57.1884 65.3581C57.3052 67.3333 59.3429 69.1468 61.5239 69.2386C64.0288 69.3435 66.1657 67.6873 66.4851 65.3581C63.3833 65.3581 60.2858 65.3581 57.1884 65.3581Z" fill="white"/>
<path d="M51.4722 18.5412C51.7277 18.2091 51.9282 17.96 52.1177 17.7044C54.7525 14.1712 57.3851 10.6381 60.0221 7.10501C60.7843 6.08244 61.2998 6.08025 62.0356 7.10064C66.565 13.3846 71.0944 19.6665 75.6084 25.9614C75.8177 26.2542 76.0028 26.6475 75.9873 26.9862C75.9785 27.2221 75.6106 27.6329 75.4035 27.6329C75.0533 27.6307 74.5818 27.4603 74.3769 27.1981C73.3547 25.8784 72.4273 24.4865 71.4051 23.1668C71.1319 22.8129 70.6825 22.507 70.2551 22.3737C68.6821 21.8886 67.0783 21.4997 65.4944 21.0474C65.0714 20.9272 64.7894 20.9644 64.5118 21.3402C64.1065 21.8908 63.6328 22.389 63.1944 22.9155C62.8133 23.37 62.3485 23.5973 61.8396 23.1974C61.2822 22.7582 61.4474 22.2513 61.8572 21.775C62.4829 21.0474 63.1195 20.3285 63.7099 19.5747C64.1131 19.0612 64.5823 18.9826 65.1705 19.1464C66.4879 19.5157 67.8098 19.8675 69.3673 20.2892C68.0521 18.4604 66.8669 16.8151 65.6376 15.1064C64.644 15.5565 63.6791 15.9979 62.7098 16.4305C61.844 16.8151 61.5025 16.6796 61.0928 15.8078C60.8967 15.3883 60.705 14.9688 60.4671 14.4509C59.6366 14.8551 58.8369 15.2463 58.035 15.6374C57.7882 15.7575 57.5503 15.9083 57.2903 15.9891C55.0829 16.6774 53.6752 18.2725 52.523 20.1406C52.3886 20.3569 52.393 20.6803 52.4019 20.9534C52.4063 21.1326 52.534 21.3074 52.6023 21.4866C52.805 22.0219 52.8358 22.5594 52.2212 22.8085C51.5889 23.0641 51.1902 22.7255 50.9567 22.1246C50.0446 19.7845 49.1216 17.4509 48.1985 15.1173C47.8703 14.2849 47.5332 13.4568 47.2049 12.6396C46.5991 13.2164 46.0043 13.743 45.469 14.322C45.3434 14.4575 45.3368 14.8224 45.4271 15.0059C45.7025 15.5674 46.0506 16.0962 46.3766 16.6337C46.6894 17.1494 46.6586 17.6126 46.1805 18.019C45.2597 18.8012 44.3432 19.5856 43.4268 20.37C42.9641 20.7655 42.4663 20.8573 42.0565 20.3526C41.6467 19.85 41.8604 19.389 42.3164 19.0044C43.0699 18.3708 43.8167 17.7284 44.5834 17.0751C44.2243 16.4655 43.9246 15.8799 43.5545 15.3446C43.0567 14.6279 43.1668 14.0598 43.7903 13.4764C44.5305 12.7838 45.2112 12.03 45.9162 11.3002C46.5 10.6971 46.4978 10.6971 46.0395 9.83842C45.1077 10.1771 44.1626 10.5201 43.2175 10.8654C41.9574 11.3242 41.9133 11.3111 41.1312 10.2055C41.0541 10.0962 40.9594 9.99792 40.836 9.84935C38.3598 11.1188 35.8925 12.3752 33.4383 13.6534C33.1805 13.7889 32.9801 14.0401 32.7686 14.2543C28.5432 18.48 24.3178 22.7102 20.0946 26.9381C19.9206 27.1129 19.7488 27.2921 19.5659 27.4559C19.187 27.799 18.764 27.8471 18.3829 27.4996C17.9709 27.1282 17.9775 26.6693 18.3278 26.2586C18.6472 25.8849 19.0085 25.5441 19.3632 25.201C21.0617 23.5645 22.7625 21.9345 24.5139 20.2521C23.278 18.5936 22.1434 17.0685 20.9472 15.4626C20.5264 16.0088 20.1717 16.483 19.8038 16.9462C19.2729 17.6148 18.7948 17.724 18.2265 17.1319C17.5722 16.4524 16.9289 16.3387 16.1138 16.7539C15.8252 16.9025 15.4881 16.9571 15.1753 17.062C14.6069 17.2543 14.1685 17.1166 13.8116 16.6206C13.2388 15.8253 12.6374 15.054 11.9457 14.1385C11.8091 14.4728 11.6637 14.676 11.6527 14.8835C11.6042 15.893 11.5712 16.9047 11.591 17.9119C11.5954 18.102 11.8267 18.3795 12.0184 18.456C12.5515 18.6701 13.1155 18.8078 13.6706 18.9607C14.2853 19.1312 14.6047 19.4851 14.5232 20.1515C14.3866 21.2899 14.2831 22.4305 14.1399 23.5689C14.0694 24.1217 13.7499 24.5106 13.1485 24.4319C12.5669 24.3554 12.318 23.9403 12.3797 23.3635C12.4788 22.4436 12.5889 21.5237 12.7035 20.5208C12.1131 20.3416 11.5447 20.1668 10.9763 19.9942C9.88364 19.6599 9.79332 19.5332 9.81975 18.362C9.82636 18.0671 9.81975 17.7721 9.81975 17.2586C9.54438 17.5951 9.37695 17.783 9.23155 17.984C7.08361 20.9578 4.94007 23.9316 2.79434 26.9053C2.66656 27.0823 2.5454 27.2702 2.39339 27.4254C2.0343 27.7946 1.55184 27.8798 1.2324 27.504C1.01871 27.2527 1.01871 26.783 1.02091 26.4115C1.02311 26.2302 1.24782 26.051 1.3756 25.874C5.85433 19.6556 10.3353 13.4393 14.8162 7.22081C15.6577 6.05185 16.1182 6.04529 16.9752 7.19459C19.6915 10.837 22.4056 14.4815 25.1219 18.1261C25.2849 18.3446 25.4568 18.5543 25.8621 19.07C26.045 18.7357 26.1375 18.4188 26.3446 18.2135C31.8389 12.6942 37.3442 7.18804 42.8474 1.67969C42.9245 1.60103 42.9994 1.52237 43.0787 1.4459C43.8387 0.720486 44.4468 0.82755 44.8345 1.79987C45.9184 4.51143 46.9802 7.23174 48.0487 9.94767C49.0599 12.5128 50.0689 15.0758 51.08 17.641C51.1792 17.9032 51.3048 18.1632 51.4722 18.5412Z" fill="white"/>
<path d="M38.7873 49.9371C37.1373 49.9371 35.4872 49.9437 33.8393 49.9349C32.8479 49.9306 32.5858 49.6968 32.5836 48.7485C32.5725 45.8315 32.5725 42.9124 32.5836 39.9954C32.5858 39.0558 32.8744 38.7783 33.8217 38.7762C37.1769 38.7696 40.5299 38.7696 43.8852 38.7762C44.7928 38.7783 45.0836 39.0602 45.0858 39.9386C45.0924 42.8839 45.0924 45.8293 45.0858 48.7725C45.0836 49.6946 44.8435 49.9284 43.9028 49.9327C42.1976 49.9437 40.4925 49.9349 38.7873 49.9371Z" fill="white"/>
<path d="M64.3929 45.7946C64.1506 46.0568 63.9787 46.4086 63.7298 46.4742C63.4412 46.5507 62.9962 46.4786 62.7759 46.2906C62.0709 45.6897 61.4365 45.0057 60.7778 44.3501C59.8855 43.4651 58.9955 42.5779 58.1011 41.695C57.6561 41.2558 57.4578 40.7641 57.9777 40.2834C58.4602 39.8376 58.9294 40.0452 59.3458 40.4582C60.8571 41.9616 62.3771 43.4564 63.8774 44.9686C64.0735 45.1652 64.1814 45.4515 64.3929 45.7946Z" fill="white"/>
<path d="M66.0722 42.0689C65.9003 42.2699 65.7417 42.613 65.4862 42.7135C65.2328 42.8118 64.7746 42.7812 64.5895 42.6108C63.5806 41.6843 62.5936 40.7273 61.6838 39.7068C61.5009 39.5036 61.5406 38.8481 61.7344 38.6427C61.9327 38.4329 62.6112 38.3433 62.8007 38.5116C63.867 39.4534 64.8517 40.4847 65.8519 41.4986C65.9576 41.6057 65.9708 41.798 66.0722 42.0689Z" fill="white"/>
</svg>
