<svg width="24" height="24" viewBox="0 0 24 24" fill="none" xmlns="http://www.w3.org/2000/svg">
<path fill-rule="evenodd" clip-rule="evenodd" d="M12 3C11.4477 3 11 3.44772 11 4C11 4.55228 11.4477 5 12 5C12.5523 5 13 4.55228 13 4C13 3.44772 12.5523 3 12 3ZM14.6979 5.31355C14.8914 4.91684 15 4.4711 15 4C15 2.34315 13.6569 1 12 1C10.3431 1 9 2.34315 9 4C9 4.4711 9.10859 4.91684 9.3021 5.31355C8.78166 5.45204 8.30288 5.63946 7.87886 5.88176C6.98388 6.39318 6.33731 7.15403 6.0998 8.1374C4.88277 8.51975 4 9.65678 4 11C4 11.4711 4.10859 11.9168 4.3021 12.3136C3.78165 12.452 3.30288 12.6395 2.87886 12.8818C1.73738 13.534 1 14.5921 1 16V17C1 17.5523 1.44772 18 2 18C2.55228 18 3 17.5523 3 17V16C3 15.4079 3.26262 14.966 3.87114 14.6182C4.53389 14.2395 5.58658 14 7 14C8.14526 14 9.12273 14.1573 9.84718 14.4341C9.97977 14.4848 10.1002 14.5379 10.2093 14.5928C9.47536 15.1397 9 16.0143 9 17C9 17.4711 9.10859 17.9168 9.3021 18.3136C8.78165 18.452 8.30288 18.6395 7.87886 18.8818C6.73738 19.534 6 20.5921 6 22C6 22.5523 6.44772 23 7 23C7.55228 23 8 22.5523 8 22C8 21.4079 8.26262 20.966 8.87114 20.6182C9.53389 20.2395 10.5866 20 12 20C13.4134 20 14.4661 20.2395 15.1289 20.6182C15.7374 20.966 16 21.4079 16 22C16 22.5523 16.4477 23 17 23C17.5523 23 18 22.5523 18 22C18 20.5921 17.2626 19.534 16.1211 18.8818C15.6971 18.6395 15.2183 18.452 14.6979 18.3136C14.8914 17.9168 15 17.4711 15 17C15 16.0143 14.5246 15.1397 13.7907 14.5928C13.8998 14.5379 14.0202 14.4848 14.1528 14.4341C14.8772 14.1573 15.8547 14 16.9999 14C18.4134 14 19.466 14.2395 20.1288 14.6182C20.7373 14.966 20.9999 15.4079 20.9999 16L21 17.0001C21 17.5523 21.4478 18 22.0001 18C22.5523 18 23 17.5522 23 16.9999L22.9999 16C22.9999 16 22.9999 16 22.9999 16C22.9999 14.5921 22.2625 13.534 21.1211 12.8818C20.6971 12.6395 20.2183 12.4521 19.6979 12.3136C19.8914 11.9169 20 11.4711 20 11C20 9.65678 19.1172 8.51975 17.9002 8.1374C17.6627 7.15403 17.0161 6.39318 16.1211 5.88176C15.6971 5.63946 15.2183 5.45205 14.6979 5.31355ZM15.8095 8.24548C15.6685 8.00564 15.4455 7.79918 15.1289 7.61824C14.4661 7.23953 13.4134 7 12 7C10.5866 7 9.53389 7.23953 8.87114 7.61824C8.5545 7.79918 8.33151 8.00564 8.19045 8.24548C9.25509 8.70622 10 9.76612 10 11C10 11.4656 9.89393 11.9064 9.70463 12.2997C10.0035 12.3738 10.2899 12.4623 10.5611 12.5659C11.0844 12.7658 11.5818 13.0351 12 13.3883C12.4181 13.0351 12.9156 12.7658 13.4389 12.5659C13.71 12.4623 13.9964 12.3738 14.2954 12.2997C14.1061 11.9064 14 11.4656 14 11C14 9.76612 14.7449 8.70622 15.8095 8.24548ZM16.9999 12C17.5523 12 18 11.5522 18 11C18 10.4477 17.5523 10 17 10C16.4477 10 16 10.4477 16 11C16 11.5523 16.4477 12 16.9999 12ZM12 18C12.5523 18 13 17.5523 13 17C13 16.4477 12.5523 16 12 16C11.4477 16 11 16.4477 11 17C11 17.5523 11.4477 18 12 18ZM7 12C7.55228 12 8 11.5523 8 11C8 10.4477 7.55228 10 7 10C6.44772 10 6 10.4477 6 11C6 11.5523 6.44772 12 7 12Z" fill="currentColor"/>
</svg>
