<svg width="24" height="24" viewBox="0 0 24 24" fill="none" xmlns="http://www.w3.org/2000/svg">
<path d="M4.99805 3.90637C3.34115 3.90637 1.99805 5.24947 1.99805 6.90637V16.6564C1.99805 18.4513 3.45315 19.9064 5.24805 19.9064H18.7481C20.543 19.9064 21.9981 18.4513 21.9981 16.6564V8.90637C21.9981 8.35407 21.5504 7.90637 20.9981 7.90637H19.9981V4.90637C19.9981 4.35407 19.5504 3.90637 18.9981 3.90637H4.99805ZM4.99805 5.90637H17.9981V7.90637H4.99805C4.44575 7.90637 3.99805 7.45867 3.99805 6.90637C3.99805 6.35407 4.44575 5.90637 4.99805 5.90637ZM4.99805 9.90637H19.9981V16.6564C19.9981 17.3468 19.4384 17.9064 18.7481 17.9064H5.24805C4.55765 17.9064 3.99805 17.3468 3.99805 16.6564L4.00385 9.73047C4.00385 9.73047 4.36185 9.90947 4.99805 9.90637ZM16.9981 12.9064C16.4458 12.9064 15.9981 13.3541 15.9981 13.9064C15.9981 14.4587 16.4458 14.9064 16.9981 14.9064C17.5504 14.9064 17.9981 14.4587 17.9981 13.9064C17.9981 13.3541 17.5504 12.9064 16.9981 12.9064Z" fill="currentColor"/>
</svg>
