<svg width="16" height="11" viewBox="0 0 16 11" fill="none" xmlns="http://www.w3.org/2000/svg">
<path d="M15.334 2.16797C15.6621 3.31641 15.6621 5.77734 15.6621 5.77734C15.6621 5.77734 15.6621 8.21094 15.334 9.38672C15.1699 10.043 14.6504 10.5352 14.0215 10.6992C12.8457 11 8.19725 11 8.19725 11C8.19725 11 3.52147 11 2.34569 10.6992C1.71678 10.5352 1.19725 10.043 1.03319 9.38672C0.705066 8.21094 0.705066 5.77734 0.705066 5.77734C0.705066 5.77734 0.705066 3.31641 1.03319 2.16797C1.19725 1.51172 1.71678 0.992188 2.34569 0.828125C3.52147 0.5 8.19725 0.5 8.19725 0.5C8.19725 0.5 12.8457 0.5 14.0215 0.828125C14.6504 0.992188 15.1699 1.51172 15.334 2.16797ZM6.666 7.99219L10.5488 5.77734L6.666 3.5625V7.99219Z" fill="#DF6951"/>
</svg>
