<svg width="128" height="50" viewBox="0 0 128 50" fill="none" xmlns="http://www.w3.org/2000/svg">
<path fill-rule="evenodd" clip-rule="evenodd" d="M23.8237 7.13808C22.3399 8.76587 19.9658 10.0498 17.5916 9.86634C17.2948 7.66539 18.4572 5.32689 19.8174 3.88251C21.3012 2.20887 23.8979 1.01669 26 0.924988C26.2473 3.21764 25.2828 5.46445 23.8237 7.13808ZM25.9744 10.3019C23.8828 10.1904 21.9743 10.8851 20.4328 11.4462C19.4408 11.8073 18.6007 12.1131 17.9616 12.1131C17.2444 12.1131 16.3697 11.791 15.3876 11.4293C14.1007 10.9554 12.6294 10.4135 11.0865 10.4395C7.55006 10.4854 4.26089 12.3424 2.45555 15.2999C-1.25404 21.215 1.49106 29.9729 5.077 34.7875C6.83287 37.1719 8.93497 39.7855 11.7048 39.6938C12.9234 39.6511 13.7999 39.3063 14.7071 38.9495C15.7515 38.5386 16.8364 38.1118 18.5304 38.1118C20.1658 38.1118 21.2033 38.5275 22.1992 38.9265C23.1461 39.3059 24.0555 39.6703 25.4056 39.6479C28.2743 39.6021 30.0796 37.2636 31.8355 34.8792C33.7304 32.3201 34.5631 29.8226 34.6894 29.4436C34.6967 29.4219 34.7016 29.4072 34.7043 29.3998C34.7012 29.3969 34.6778 29.387 34.6365 29.3695C34.0031 29.1007 29.1616 27.0459 29.1151 21.536C29.0685 16.9112 32.9553 14.5679 33.5671 14.1991L33.5672 14.199C33.6044 14.1766 33.6295 14.1615 33.6408 14.1536C31.1678 10.7605 27.3098 10.3937 25.9744 10.3019ZM45.834 39.3957V3.65326H60.3014C67.77 3.65326 72.9882 8.42198 72.9882 15.3916C72.9882 22.3613 67.6711 27.1759 60.1035 27.1759H51.8188V39.3957H45.834ZM51.8184 8.33026H58.7182C63.9116 8.33026 66.8793 10.898 66.8793 15.4146C66.8793 19.9311 63.9116 22.5218 58.6935 22.5218H51.8184V8.33026ZM92.7466 35.1084C91.1639 37.9055 87.6768 39.6708 83.9178 39.6708C78.3534 39.6708 74.4707 36.5987 74.4707 31.9675C74.4707 27.3822 78.2298 24.7456 85.1791 24.3559L92.6477 23.9432V21.9715C92.6477 19.0599 90.5951 17.4779 86.9349 17.4779C83.9178 17.4779 81.7168 18.9223 81.2716 21.1232H75.8803C76.0535 16.4921 80.7523 13.1219 87.108 13.1219C93.9584 13.1219 98.4099 16.4462 98.4099 21.6047V39.3957H92.8703V35.1084H92.7466ZM85.5248 35.4295C82.3345 35.4295 80.3066 34.008 80.3066 31.83C80.3066 29.5832 82.2604 28.2764 85.9947 28.07L92.6472 27.6803V29.6978C92.6472 33.0451 89.5806 35.4295 85.5248 35.4295ZM116.785 40.7943C114.386 47.0532 111.641 49.1166 105.804 49.1166C105.359 49.1166 103.875 49.0707 103.529 48.979V44.6918C103.9 44.7376 104.815 44.7835 105.285 44.7835C107.931 44.7835 109.415 43.7518 110.33 41.0694L110.874 39.4874L100.734 13.4658H106.991L114.039 34.5812H114.163L121.211 13.4658H127.295L116.785 40.7943Z" fill="black"/>
</svg>
