<svg width="76" height="75" viewBox="0 0 76 75" fill="none" xmlns="http://www.w3.org/2000/svg">
<path d="M0.306335 30.5354C0.306335 29.2245 0.306335 27.9135 0.306335 26.6026C0.551665 25.1256 0.679472 23.6165 1.06289 22.1759C4.07443 10.8756 11.2977 3.72798 22.7268 0.817673C24.1356 0.459348 25.6032 0.328256 27.0429 0.0922852C28.365 0.0922852 29.6872 0.0922852 31.0093 0.0922852C31.1959 0.134527 31.3824 0.200071 31.5719 0.216093C34.9713 0.495762 38.2384 1.31438 41.2794 2.83799C51.0367 7.73074 56.5397 15.5688 57.6239 26.3884C57.6944 27.0949 57.9251 27.392 58.6155 27.6266C66.7937 30.3985 72.1277 35.9278 74.609 44.1227C75.0614 45.6186 75.226 47.2019 75.5227 48.7445C75.5227 49.9578 75.5227 51.1726 75.5227 52.386C75.4786 52.5724 75.414 52.7574 75.3964 52.9468C75.0776 56.2475 74.1036 59.3471 72.4671 62.2327C72.2159 62.6755 72.1894 63.0556 72.3231 63.5261C73.2912 66.9259 74.2402 70.3314 75.1907 73.737C75.2583 73.9788 75.3023 74.2278 75.3699 74.5294C75.1863 74.4915 75.0923 74.4784 75.0012 74.4536C71.4961 73.4937 67.9865 72.5484 64.4902 71.5564C63.8556 71.3773 63.3767 71.4807 62.7788 71.7356C60.8793 72.5454 58.9578 73.3218 56.9893 73.9409C55.7244 74.3385 54.3641 74.439 53.0464 74.6721C51.8227 74.6721 50.5975 74.6721 49.3738 74.6721C49.1857 74.6284 49.0006 74.5614 48.8097 74.5439C39.161 73.6263 30.9065 66.9652 28.0066 57.7172C27.8406 57.1884 27.6099 57.0005 27.062 56.9641C22.7019 56.6742 18.6179 55.4594 14.8087 53.3255C14.5737 53.1944 14.1991 53.1857 13.9258 53.2585C11.3065 53.9518 8.69603 54.6772 6.0826 55.391C4.23308 55.8964 2.38356 56.3989 0.447363 56.9262C0.523753 56.5941 0.566356 56.364 0.629524 56.1382C1.76069 52.0772 2.88156 48.0118 4.04358 43.9595C4.22427 43.3317 4.19342 42.8467 3.86141 42.264C2.53046 39.932 1.56237 37.4485 1.02323 34.8178C0.732357 33.4006 0.541382 31.9629 0.306335 30.5354ZM6.74367 50.6453C6.96844 50.5929 7.08155 50.5711 7.19173 50.5405C9.57158 49.8908 11.9573 49.2601 14.3269 48.577C14.8998 48.4109 15.3273 48.4867 15.8238 48.7998C21.3636 52.2928 27.3793 53.4347 33.8152 52.2025C47.107 49.6578 55.8287 36.4332 52.707 23.2815C50.5402 14.1558 44.7551 8.01915 35.672 5.44241C26.6433 2.88023 18.5195 5.05495 11.8251 11.6024C3.62343 19.6254 2.40706 31.9265 8.63286 41.6814C8.93107 42.1489 9.01481 42.5524 8.85615 43.0972C8.13779 45.5632 7.46644 48.0438 6.74367 50.6453ZM57.5622 31.8653C56.6896 38.4637 53.9719 44.076 49.2974 48.7022C44.6273 53.327 38.9627 56.0115 32.3667 56.8636C32.4372 57.0952 32.4783 57.2525 32.5327 57.4055C35.1564 64.7541 42.6544 70.1173 50.5387 70.2935C54.796 70.3897 58.711 69.3089 62.2617 66.9696C62.6803 66.6943 63.0491 66.6098 63.5529 66.7656C64.928 67.1895 66.325 67.5464 67.7147 67.9236C68.1422 68.0402 68.5771 68.1348 69.0809 68.2572C68.5874 66.4845 68.1643 64.8152 67.6457 63.1765C67.4121 62.438 67.5076 61.886 67.9307 61.2291C73.1017 53.2017 71.8765 42.9413 64.9735 36.321C62.8743 34.308 60.4386 32.8237 57.5622 31.8653Z" fill="white"/>
<path d="M24.5725 21.915C23.1138 21.915 21.7226 21.915 20.2638 21.915C20.1772 20.4234 20.5562 19.0614 21.2775 17.8145C23.1255 14.6186 25.952 12.9872 29.6554 13.2494C33.2898 13.5072 35.9135 15.4329 37.221 18.8225C38.5504 22.2689 37.8159 25.4182 35.2627 28.0926C34.2564 29.1472 33.14 30.1071 32.022 31.0496C31.4315 31.5478 31.1391 32.0693 31.2155 32.8544C31.2875 33.5973 31.2302 34.3504 31.2302 35.1486C29.7627 35.1486 28.3568 35.1486 26.8216 35.1486C26.8216 34.4523 26.8158 33.7371 26.8231 33.0233C26.8319 31.9818 26.5572 30.8122 26.9465 29.9338C27.3358 29.0554 28.3891 28.4641 29.1574 27.7547C30.1608 26.8282 31.1979 25.9382 32.1689 24.9798C33.4867 23.6775 33.7908 21.7096 33.0004 20.0665C32.2115 18.4263 30.4516 17.4285 28.6271 17.5873C26.8143 17.7461 25.2689 19.0337 24.7826 20.8065C24.6886 21.1502 24.6475 21.5115 24.5725 21.915Z" fill="white"/>
<path d="M31.1697 43.9155C29.7271 43.9155 28.336 43.9155 26.8831 43.9155C26.8831 42.485 26.8831 41.0721 26.8831 39.6111C28.2934 39.6111 29.7007 39.6111 31.1697 39.6111C31.1697 41.0153 31.1697 42.4297 31.1697 43.9155Z" fill="white"/>
</svg>
