<svg width="22" height="22" viewBox="0 0 22 22" fill="none" xmlns="http://www.w3.org/2000/svg">
<path d="M18.5827 2.33366H16.416V1.25033C16.416 0.963008 16.3019 0.687458 16.0987 0.484293C15.8955 0.281129 15.62 0.166992 15.3327 0.166992C15.0454 0.166992 14.7698 0.281129 14.5666 0.484293C14.3635 0.687458 14.2493 0.963008 14.2493 1.25033V2.33366H7.74935V1.25033C7.74935 0.963008 7.63521 0.687458 7.43205 0.484293C7.22888 0.281129 6.95333 0.166992 6.66602 0.166992C6.3787 0.166992 6.10315 0.281129 5.89998 0.484293C5.69682 0.687458 5.58268 0.963008 5.58268 1.25033V2.33366H3.41602C2.55406 2.33366 1.72741 2.67607 1.11792 3.28556C0.508425 3.89505 0.166016 4.7217 0.166016 5.58366V18.5837C0.166016 19.4456 0.508425 20.2723 1.11792 20.8818C1.72741 21.4912 2.55406 21.8337 3.41602 21.8337H18.5827C19.4446 21.8337 20.2713 21.4912 20.8808 20.8818C21.4903 20.2723 21.8327 19.4456 21.8327 18.5837V5.58366C21.8327 4.7217 21.4903 3.89505 20.8808 3.28556C20.2713 2.67607 19.4446 2.33366 18.5827 2.33366ZM19.666 18.5837C19.666 18.871 19.5519 19.1465 19.3487 19.3497C19.1455 19.5529 18.87 19.667 18.5827 19.667H3.41602C3.1287 19.667 2.85315 19.5529 2.64998 19.3497C2.44682 19.1465 2.33268 18.871 2.33268 18.5837V11.0003H19.666V18.5837ZM19.666 8.83366H2.33268V5.58366C2.33268 5.29634 2.44682 5.02079 2.64998 4.81763C2.85315 4.61446 3.1287 4.50033 3.41602 4.50033H5.58268V5.58366C5.58268 5.87098 5.69682 6.14653 5.89998 6.34969C6.10315 6.55286 6.3787 6.66699 6.66602 6.66699C6.95333 6.66699 7.22888 6.55286 7.43205 6.34969C7.63521 6.14653 7.74935 5.87098 7.74935 5.58366V4.50033H14.2493V5.58366C14.2493 5.87098 14.3635 6.14653 14.5666 6.34969C14.7698 6.55286 15.0454 6.66699 15.3327 6.66699C15.62 6.66699 15.8955 6.55286 16.0987 6.34969C16.3019 6.14653 16.416 5.87098 16.416 5.58366V4.50033H18.5827C18.87 4.50033 19.1455 4.61446 19.3487 4.81763C19.5519 5.02079 19.666 5.29634 19.666 5.58366V8.83366Z" fill="currentColor"/>
</svg>
