<svg width="20" height="21" viewBox="0 0 20 21" fill="none" xmlns="http://www.w3.org/2000/svg">
<path d="M9.16671 7.75004H12.5C12.721 7.75004 12.933 7.66224 13.0893 7.50596C13.2456 7.34969 13.3334 7.13772 13.3334 6.91671C13.3334 6.6957 13.2456 6.48373 13.0893 6.32745C12.933 6.17117 12.721 6.08337 12.5 6.08337H10.8334V5.25004C10.8334 5.02903 10.7456 4.81706 10.5893 4.66079C10.433 4.50451 10.2211 4.41671 10 4.41671C9.77903 4.41671 9.56707 4.50451 9.41079 4.66079C9.25451 4.81706 9.16671 5.02903 9.16671 5.25004V6.08337C8.50367 6.08337 7.86779 6.34676 7.39894 6.81561C6.93011 7.28445 6.66671 7.92033 6.66671 8.58337C6.66671 9.24642 6.93011 9.8823 7.39894 10.3511C7.86779 10.82 8.50367 11.0834 9.16671 11.0834H10.8334C11.0544 11.0834 11.2664 11.1712 11.4226 11.3275C11.5789 11.4837 11.6667 11.6957 11.6667 11.9167C11.6667 12.1377 11.5789 12.3497 11.4226 12.5059C11.2664 12.6623 11.0544 12.75 10.8334 12.75H7.50004C7.27903 12.75 7.06707 12.8378 6.91079 12.9942C6.75451 13.1504 6.66671 13.3624 6.66671 13.5834C6.66671 13.8044 6.75451 14.0164 6.91079 14.1726C7.06707 14.3289 7.27903 14.4167 7.50004 14.4167H9.16671V15.25C9.16671 15.471 9.25451 15.683 9.41079 15.8393C9.56707 15.9956 9.77903 16.0834 10 16.0834C10.2211 16.0834 10.433 15.9956 10.5893 15.8393C10.7456 15.683 10.8334 15.471 10.8334 15.25V14.4167C11.4964 14.4167 12.1323 14.1533 12.6012 13.6845C13.07 13.2156 13.3334 12.5797 13.3334 11.9167C13.3334 11.2537 13.07 10.6178 12.6012 10.1489C12.1323 9.6801 11.4964 9.41671 10.8334 9.41671H9.16671C8.9457 9.41671 8.73374 9.32891 8.57745 9.17263C8.42117 9.01635 8.33337 8.80439 8.33337 8.58337C8.33337 8.36236 8.42117 8.1504 8.57745 7.99412C8.73374 7.83784 8.9457 7.75004 9.16671 7.75004ZM10 1.08337C8.18705 1.08337 6.41476 1.62099 4.90732 2.62824C3.39986 3.63549 2.22495 5.06712 1.53115 6.74211C0.837346 8.4171 0.655815 10.2602 1.00951 12.0384C1.36321 13.8165 2.23625 15.4498 3.51823 16.7318C4.80022 18.0138 6.43356 18.8869 8.21172 19.2406C9.98987 19.5943 11.833 19.4127 13.5079 18.7189C15.1829 18.0252 16.6146 16.8503 17.6218 15.3428C18.629 13.8354 19.1667 12.063 19.1667 10.25C19.1667 7.81889 18.2009 5.48731 16.4818 3.76823C14.7628 2.04914 12.4312 1.08337 10 1.08337ZM10 17.75C8.51669 17.75 7.06664 17.3102 5.83326 16.486C4.5999 15.6619 3.63861 14.4906 3.07095 13.1202C2.5033 11.7497 2.35476 10.2417 2.64415 8.78686C2.93354 7.33201 3.64785 5.99563 4.69674 4.94674C5.74564 3.89784 7.08201 3.18354 8.53686 2.89415C9.99173 2.60476 11.4997 2.75329 12.8702 3.32094C14.2406 3.8886 15.4119 4.8499 16.236 6.08326C17.0602 7.31663 17.5 8.76669 17.5 10.25C17.5 12.2392 16.7098 14.1468 15.3034 15.5534C13.8968 16.9598 11.9892 17.75 10 17.75Z" fill="currentColor"/>
</svg>
