<svg width="20" height="20" viewBox="0 0 20 20" fill="none" xmlns="http://www.w3.org/2000/svg">
<g clip-path="url(#clip0_461_349)">
<path d="M1.25 10.625C1.25 9.58947 2.08947 8.75 3.125 8.75C4.16053 8.75 5 9.58947 5 10.625V16.875C5 17.9105 4.16053 18.75 3.125 18.75C2.08947 18.75 1.25 17.9105 1.25 16.875V10.625Z" stroke="currentColor" stroke-width="2" stroke-linejoin="round"/>
<path d="M5 11.3113C5 10.8246 5 10.5812 5.04502 10.3472C5.08497 10.1396 5.15111 9.93782 5.24185 9.74681C5.3441 9.53156 5.48816 9.33545 5.77629 8.94321L11.2489 1.49309C11.3612 1.34026 11.5395 1.25 11.7291 1.25C13.0454 1.25 14.1124 2.31703 14.1124 3.63329V7.8125H14.377C15.894 7.8125 16.6525 7.8125 17.211 8.11609C17.7016 8.3828 18.0887 8.80608 18.3108 9.31846C18.5635 9.90167 18.4961 10.6572 18.3612 12.1681L18.099 15.1056C17.9842 16.3919 17.9268 17.035 17.6394 17.5215C17.3863 17.9499 17.0112 18.2931 16.562 18.507C16.0519 18.75 15.4062 18.75 14.1148 18.75H9C7.59987 18.75 6.8998 18.75 6.36502 18.4775C5.89462 18.2378 5.51217 17.8554 5.27248 17.385C5 16.8502 5 16.1501 5 14.75V11.3113Z" stroke="currentColor" stroke-width="2" stroke-linejoin="round"/>
</g>
<defs>
<clipPath id="clip0_461_349">
<rect width="20" height="20" fill="white"/>
</clipPath>
</defs>
</svg>
