<svg width="24" height="24" viewBox="0 0 24 24" fill="none" xmlns="http://www.w3.org/2000/svg">
<path d="M12.0137 1.99902C6.49067 1.99902 2.01367 6.47602 2.01367 11.999C2.01367 17.522 6.49067 21.999 12.0137 21.999C17.5367 21.999 22.0137 17.522 22.0137 11.999C22.0137 6.47602 17.5367 1.99902 12.0137 1.99902ZM12.0137 3.99902C16.4317 3.99902 20.0137 7.58102 20.0137 11.999C20.0137 16.417 16.4317 19.999 12.0137 19.999C7.59567 19.999 4.01367 16.417 4.01367 11.999C4.01367 7.58102 7.59567 3.99902 12.0137 3.99902ZM15.7017 7.06104L9.70168 9.06104C9.40268 9.16104 9.17567 9.38801 9.07567 9.68701L7.07567 15.687C6.81567 16.468 7.54467 17.197 8.32567 16.937C9.07667 16.686 13.5757 15.187 14.3257 14.937C14.6247 14.837 14.8517 14.61 14.9517 14.311L16.9517 8.31104C17.2117 7.53004 16.4827 6.80104 15.7017 7.06104ZM14.4517 9.56104L13.2327 13.218C12.4467 13.48 11.0147 13.957 9.57567 14.437L10.7947 10.78L14.4517 9.56104Z" fill="currentColor"/>
</svg>
