<svg width="19" height="20" viewBox="0 0 19 20" fill="none" xmlns="http://www.w3.org/2000/svg">
<path d="M4.3175 14.7826C3.80506 14.7826 3.30416 14.6296 2.87809 14.343C2.45201 14.0564 2.11988 13.6489 1.92378 13.1723C1.72768 12.6956 1.67638 12.1711 1.77635 11.665C1.87632 11.159 2.12309 10.6942 2.48543 10.3293C2.84778 9.96449 3.30945 9.71603 3.81204 9.61537C4.31463 9.51472 4.83559 9.56638 5.30901 9.76382C5.78244 9.96127 6.18705 10.2956 6.47174 10.7246C6.75643 11.1536 6.90841 11.658 6.90841 12.1739C6.90841 12.8658 6.63545 13.5293 6.14956 14.0186C5.66367 14.5078 5.00465 14.7826 4.3175 14.7826ZM4.3175 11.3044C4.14669 11.3044 3.97973 11.3554 3.83771 11.4509C3.69569 11.5465 3.58496 11.6823 3.51959 11.8412C3.45423 12.0001 3.43714 12.1749 3.47046 12.3436C3.50379 12.5123 3.58604 12.6672 3.70683 12.7888C3.82761 12.9104 3.9815 12.9932 4.14903 13.0268C4.31656 13.0604 4.49019 13.0431 4.648 12.9773C4.80581 12.9115 4.9407 12.8 5.03559 12.657C5.13049 12.514 5.18113 12.3459 5.18113 12.1739C5.18113 11.9433 5.09013 11.7221 4.92817 11.5591C4.7662 11.396 4.54655 11.3044 4.3175 11.3044Z" fill="#DF6951"/>
<path d="M8.63636 20H6.90909V18.2609C6.90909 18.0302 6.81809 17.8091 6.65613 17.646C6.49416 17.4829 6.27451 17.3913 6.04545 17.3913H2.59091C2.36186 17.3913 2.1422 17.4829 1.98024 17.646C1.81828 17.8091 1.72727 18.0302 1.72727 18.2609V20H0V18.2609C0 17.569 0.272955 16.9055 0.758845 16.4162C1.24473 15.927 1.90376 15.6522 2.59091 15.6522H6.04545C6.73261 15.6522 7.39163 15.927 7.87752 16.4162C8.36341 16.9055 8.63636 17.569 8.63636 18.2609V20Z" fill="#DF6951"/>
<path d="M9.5 19.1304V17.3913C11.0373 17.3913 12.5401 16.9323 13.8183 16.0724C15.0965 15.2124 16.0928 13.9902 16.6811 12.5601C17.2694 11.1301 17.4233 9.55654 17.1234 8.03843C16.8235 6.52031 16.0832 5.12585 14.9961 4.03135C13.9091 2.93685 12.5241 2.19149 11.0164 1.88952C9.50861 1.58755 7.94579 1.74252 6.52551 2.33486C5.10522 2.9272 3.8913 3.93029 3.03722 5.21729C2.18315 6.50428 1.72727 8.01737 1.72727 9.56522H0C0 7.6734 0.557154 5.82407 1.60103 4.25107C2.6449 2.67808 4.1286 1.45208 5.86449 0.728112C7.60039 0.00414325 9.51054 -0.185278 11.3534 0.183798C13.1962 0.552874 14.8889 1.46388 16.2175 2.8016C17.5461 4.13932 18.4509 5.84368 18.8175 7.69915C19.184 9.55462 18.9959 11.4779 18.2768 13.2257C17.5578 14.9735 16.3402 16.4674 14.7779 17.5184C13.2156 18.5694 11.3789 19.1304 9.5 19.1304Z" fill="#DF6951"/>
<path d="M12.3418 13.6435L8.63672 9.91305V3.46088H10.364V9.19131L13.5681 12.4174L12.3418 13.6435Z" fill="#DF6951"/>
</svg>
