<svg width="184" height="103" viewBox="0 0 184 103" fill="none" xmlns="http://www.w3.org/2000/svg">
<path d="M6.41173 36.8864L6.41173 35.1156L17.353 35.1156L17.353 36.8864L14.7599 37.424L19.5349 50.5155L23.8671 37.5821L21.369 36.8864L21.369 35.1156L29.3377 35.1156L29.3377 36.8864L26.4285 37.5821L19.5349 57.4723L16.4675 57.4723L9.22609 37.5821L6.41173 36.8864ZM29.6307 57.251L29.6307 55.575L32.3186 54.9426L32.3186 44.3176L29.6307 44.3176L29.6307 42.6416L34.6902 41.44L37.1884 41.44L37.1884 54.9426L39.8762 55.575L39.8762 57.251L29.6307 57.251ZM31.8126 36.5702C31.8126 35.748 32.0972 35.0629 32.6664 34.5147C33.2356 33.9455 33.9313 33.6609 34.7535 33.6609C35.5967 33.6609 36.2924 33.9455 36.8405 34.5147C37.4097 35.0629 37.6943 35.748 37.6943 36.5702C37.6943 37.4134 37.4097 38.1197 36.8405 38.6888C36.2924 39.258 35.5967 39.5426 34.7535 39.5426C33.9313 39.5426 33.2356 39.258 32.6664 38.6888C32.0972 38.1197 31.8126 37.4134 31.8126 36.5702ZM41.2765 49.1557C41.2765 46.6681 41.9722 44.6865 43.3636 43.2108C44.776 41.714 46.6839 40.9656 49.0871 40.9656C51.5326 40.9656 53.3772 41.7983 54.621 43.4638C55.8859 45.1292 56.5183 47.1846 56.5183 49.6301L46.1463 49.6301C46.2939 51.1901 46.8525 52.5393 47.8223 53.6777C48.792 54.795 50.0358 55.3537 51.5537 55.3537C52.692 55.3537 53.9148 55.1112 55.2218 54.6263L55.8859 56.4288C53.9253 57.2931 52.0069 57.7253 50.1307 57.7253C47.4112 57.7253 45.2503 56.9348 43.6482 55.3537C42.067 53.7515 41.2765 51.6855 41.2765 49.1557ZM46.1463 47.6695L51.4904 47.3217C51.4904 46.8157 51.4588 46.3519 51.3955 45.9303C51.3323 45.4876 51.1531 44.9605 50.858 44.3492C50.3309 43.4638 49.709 43.0211 48.9923 43.0211C48.149 43.0211 47.4533 43.4532 46.9052 44.3176C46.589 44.8446 46.3782 45.4243 46.2728 46.0568C46.1674 46.6892 46.1252 47.2268 46.1463 47.6695ZM56.4911 41.8194L56.4911 35.1156L75.9387 35.1156L75.9387 41.8194L74.0097 41.8194L72.7132 37.5505L68.7921 37.5505L68.7921 54.7845L71.7013 55.4801L71.7013 57.251L60.7285 57.251L60.7285 55.4801L63.6377 54.7845L63.6377 37.5505L59.685 37.5505L58.3885 41.8194L56.4911 41.8194ZM77.3725 57.251L77.3725 55.575L80.0604 54.9426L80.0604 44.3176L77.3725 44.3176L77.3725 42.6416L82.4321 41.44L84.9302 41.44L84.9302 43.3373C86.5113 41.7562 88.3875 40.9656 90.5589 40.9656C90.6854 41.3662 90.7487 41.8089 90.7487 42.2938C90.7487 43.2635 90.6433 44.17 90.4324 45.0133L86.4481 44.3492C85.9421 44.5811 85.4362 44.9184 84.9302 45.3611L84.9302 54.9426L88.2505 55.575L88.2505 57.251L77.3725 57.251ZM92.1336 53.3298C92.1336 51.4958 92.882 50.1044 94.3788 49.1557C95.8966 48.186 98.3421 47.7011 101.715 47.7011L101.715 46.7525C101.715 46.12 101.705 45.6668 101.683 45.3927C101.683 45.0976 101.641 44.7497 101.557 44.3492C101.473 43.9486 101.346 43.664 101.178 43.4954C101.03 43.3267 100.798 43.1792 100.482 43.0527C100.166 42.9051 99.7756 42.8313 99.3118 42.8313L95.2958 46.3098C93.8623 45.4876 93.1455 44.2122 93.1455 42.4835L94.0942 42.0724C94.4947 41.9038 95.2747 41.6824 96.4342 41.4083C97.5937 41.1132 98.7215 40.9656 99.8178 40.9656C104.35 40.9656 106.616 42.7786 106.616 46.4046L106.616 54.8793L109.083 54.8793L109.083 56.2391C108.978 56.3445 108.83 56.4815 108.64 56.6502C108.451 56.8188 108.039 57.0402 107.407 57.3142C106.775 57.5883 106.121 57.7253 105.446 57.7253C103.844 57.7253 102.653 57.1877 101.873 56.1126C100.461 57.1877 98.9218 57.7253 97.2564 57.7253C95.8018 57.7253 94.579 57.3564 93.5882 56.6185C92.6185 55.8807 92.1336 54.7845 92.1336 53.3298ZM97.2248 53.0452C97.2248 53.6566 97.425 54.1415 97.8256 54.4999C98.2472 54.8582 98.7531 55.0374 99.3434 55.0374C100.292 55.0374 101.083 54.6896 101.715 53.9939L101.715 49.6617C100.535 49.6617 99.491 49.9779 98.5845 50.6104C97.678 51.2217 97.2248 52.0333 97.2248 53.0452ZM108.63 43.1159L108.63 41.44L118.306 41.44L118.306 43.1159L116.156 43.6219L119.35 51.1795L122.48 43.6535L120.393 43.1159L120.393 41.44L127.255 41.44L127.255 43.1159L124.599 43.8116L118.97 57.4723L116.757 57.4723L110.906 43.78L108.63 43.1159ZM127.774 49.1557C127.774 46.6681 128.47 44.6865 129.861 43.2108C131.273 41.714 133.181 40.9656 135.584 40.9656C138.03 40.9656 139.875 41.7983 141.118 43.4638C142.383 45.1292 143.016 47.1846 143.016 49.6301L132.644 49.6301C132.791 51.1901 133.35 52.5393 134.32 53.6777C135.289 54.795 136.533 55.3537 138.051 55.3537C139.189 55.3537 140.412 55.1112 141.719 54.6263L142.383 56.4288C140.423 57.2931 138.504 57.7253 136.628 57.7253C133.909 57.7253 131.748 56.9348 130.145 55.3537C128.564 53.7515 127.774 51.6855 127.774 49.1557ZM132.644 47.6695L137.988 47.3217C137.988 46.8157 137.956 46.3519 137.893 45.9303C137.83 45.4876 137.65 44.9605 137.355 44.3492C136.828 43.4638 136.206 43.0211 135.49 43.0211C134.646 43.0211 133.951 43.4532 133.403 44.3176C133.086 44.8446 132.876 45.4243 132.77 46.0568C132.665 46.6892 132.623 47.2268 132.644 47.6695ZM144.373 57.251L144.373 55.575L147.061 54.9426L147.061 34.831L144.373 34.831L144.373 33.155L149.432 31.9534L151.931 31.9534L151.931 54.9426L154.618 55.575L154.618 57.251L144.373 57.251Z" fill="#181E4B"/>
<path d="M71.814 67.1498C78.1039 75.1045 105.47 83.0224 123.877 82.5255C143.772 82.0282 154.668 78.5498 175.879 65.7592C175.818 67.1596 175.631 68.2993 175.661 69.3389C175.639 70.525 175.63 71.7789 175.914 72.9221C175.975 73.2614 176.772 73.7757 177.243 73.7792C177.714 73.7827 178.393 73.2002 178.485 72.8393C179.275 69.3881 179.912 65.9584 180.613 62.45C180.8 61.3103 180.195 60.5602 178.835 60.4034C173.67 60.0151 168.494 59.5589 163.266 59.2492C162.083 59.2066 160.755 59.6713 159.227 59.886C160.975 62.6329 163.665 61.9071 165.787 62.3746C167.998 62.8993 170.3 63.0631 173.122 63.5019C167.461 68.1939 161.467 71.4712 154.932 73.9197C131.013 82.9848 107.25 81.5895 83.8531 72.2095C80.8082 70.9669 77.9437 69.4206 74.963 68.0995C74.0611 67.8782 73.2356 67.6461 71.814 67.1498Z" fill="#DF6951"/>
</svg>
