<svg width="184" height="104" viewBox="0 0 184 104" fill="none" xmlns="http://www.w3.org/2000/svg">
<path d="M6.41173 37.7313L6.41173 35.9605L17.353 35.9605L17.353 37.7313L14.7599 38.2689L19.5349 51.3604L23.8671 38.427L21.369 37.7313L21.369 35.9605L29.3377 35.9605L29.3377 37.7313L26.4285 38.427L19.5349 58.3173L16.4675 58.3173L9.22609 38.427L6.41173 37.7313ZM29.6307 58.0959L29.6307 56.4199L32.3186 55.7875L32.3186 45.1625L29.6307 45.1625L29.6307 43.4865L34.6902 42.2849L37.1884 42.2849L37.1884 55.7875L39.8762 56.4199L39.8762 58.0959L29.6307 58.0959ZM31.8126 37.4151C31.8126 36.5929 32.0972 35.9078 32.6664 35.3597C33.2356 34.7905 33.9313 34.5059 34.7535 34.5059C35.5967 34.5059 36.2924 34.7905 36.8405 35.3597C37.4097 35.9078 37.6943 36.5929 37.6943 37.4151C37.6943 38.2584 37.4097 38.9646 36.8405 39.5338C36.2924 40.103 35.5967 40.3876 34.7535 40.3876C33.9313 40.3876 33.2356 40.103 32.6664 39.5338C32.0972 38.9646 31.8126 38.2584 31.8126 37.4151ZM41.2765 50.0007C41.2765 47.5131 41.9722 45.5314 43.3636 44.0557C44.776 42.559 46.6839 41.8106 49.0871 41.8106C51.5326 41.8106 53.3772 42.6433 54.621 44.3087C55.8859 45.9741 56.5183 48.0296 56.5183 50.475L46.1463 50.475C46.2939 52.035 46.8525 53.3842 47.8223 54.5226C48.792 55.6399 50.0358 56.1986 51.5537 56.1986C52.692 56.1986 53.9148 55.9562 55.2218 55.4713L55.8859 57.2737C53.9253 58.1381 52.0069 58.5702 50.1307 58.5702C47.4112 58.5702 45.2503 57.7797 43.6482 56.1986C42.067 54.5964 41.2765 52.5304 41.2765 50.0007ZM46.1463 48.5144L51.4904 48.1666C51.4904 47.6606 51.4588 47.1969 51.3955 46.7752C51.3323 46.3325 51.1531 45.8055 50.858 45.1941C50.3309 44.3087 49.709 43.866 48.9923 43.866C48.149 43.866 47.4533 44.2982 46.9052 45.1625C46.589 45.6895 46.3782 46.2693 46.2728 46.9017C46.1674 47.5342 46.1252 48.0717 46.1463 48.5144ZM56.4911 42.6644L56.4911 35.9605L75.9387 35.9605L75.9387 42.6644L74.0097 42.6644L72.7132 38.3954L68.7921 38.3954L68.7921 55.6294L71.7013 56.3251L71.7013 58.0959L60.7285 58.0959L60.7285 56.3251L63.6377 55.6294L63.6377 38.3954L59.685 38.3954L58.3885 42.6644L56.4911 42.6644ZM77.3725 58.0959L77.3725 56.4199L80.0604 55.7875L80.0604 45.1625L77.3725 45.1625L77.3725 43.4865L82.4321 42.2849L84.9302 42.2849L84.9302 44.1822C86.5113 42.6011 88.3875 41.8106 90.5589 41.8106C90.6854 42.2111 90.7487 42.6538 90.7487 43.1387C90.7487 44.1084 90.6433 45.0149 90.4324 45.8582L86.4481 45.1941C85.9421 45.426 85.4362 45.7633 84.9302 46.206L84.9302 55.7875L88.2505 56.4199L88.2505 58.0959L77.3725 58.0959ZM92.1336 54.1748C92.1336 52.3407 92.882 50.9493 94.3788 50.0007C95.8966 49.0309 98.3421 48.5461 101.715 48.5461L101.715 47.5974C101.715 46.965 101.705 46.5117 101.683 46.2377C101.683 45.9425 101.641 45.5947 101.557 45.1941C101.473 44.7936 101.346 44.509 101.178 44.3403C101.03 44.1717 100.798 44.0241 100.482 43.8976C100.166 43.7501 99.7756 43.6763 99.3118 43.6763L95.2958 47.1547C93.8623 46.3325 93.1455 45.0571 93.1455 43.3284L94.0942 42.9173C94.4947 42.7487 95.2747 42.5273 96.4342 42.2533C97.5937 41.9581 98.7215 41.8106 99.8178 41.8106C104.35 41.8106 106.616 43.6236 106.616 47.2496L106.616 55.7243L109.083 55.7243L109.083 57.084C108.978 57.1894 108.83 57.3264 108.64 57.4951C108.451 57.6637 108.039 57.8851 107.407 58.1592C106.775 58.4332 106.121 58.5702 105.446 58.5702C103.844 58.5702 102.653 58.0327 101.873 56.9575C100.461 58.0327 98.9218 58.5702 97.2564 58.5702C95.8018 58.5702 94.579 58.2013 93.5882 57.4635C92.6185 56.7256 92.1336 55.6294 92.1336 54.1748ZM97.2248 53.8902C97.2248 54.5015 97.425 54.9864 97.8256 55.3448C98.2472 55.7032 98.7531 55.8824 99.3434 55.8824C100.292 55.8824 101.083 55.5345 101.715 54.8388L101.715 50.5066C100.535 50.5066 99.491 50.8229 98.5845 51.4553C97.678 52.0667 97.2248 52.8783 97.2248 53.8902ZM108.63 43.9609L108.63 42.2849L118.306 42.2849L118.306 43.9609L116.156 44.4668L119.35 52.0245L122.48 44.4984L120.393 43.9609L120.393 42.2849L127.255 42.2849L127.255 43.9609L124.599 44.6566L118.97 58.3173L116.757 58.3173L110.906 44.6249L108.63 43.9609ZM127.774 50.0007C127.774 47.5131 128.47 45.5314 129.861 44.0557C131.273 42.559 133.181 41.8106 135.584 41.8106C138.03 41.8106 139.875 42.6433 141.118 44.3087C142.383 45.9741 143.016 48.0296 143.016 50.475L132.644 50.475C132.791 52.035 133.35 53.3842 134.32 54.5226C135.289 55.6399 136.533 56.1986 138.051 56.1986C139.189 56.1986 140.412 55.9562 141.719 55.4713L142.383 57.2737C140.423 58.1381 138.504 58.5702 136.628 58.5702C133.909 58.5702 131.748 57.7797 130.145 56.1986C128.564 54.5964 127.774 52.5304 127.774 50.0007ZM132.644 48.5144L137.988 48.1666C137.988 47.6606 137.956 47.1969 137.893 46.7752C137.83 46.3325 137.65 45.8055 137.355 45.1941C136.828 44.3087 136.206 43.866 135.49 43.866C134.646 43.866 133.951 44.2982 133.403 45.1625C133.086 45.6895 132.876 46.2693 132.77 46.9017C132.665 47.5342 132.623 48.0717 132.644 48.5144ZM144.373 58.0959L144.373 56.42L147.061 55.7875L147.061 35.6759L144.373 35.6759L144.373 33.9999L149.432 32.7983L151.931 32.7983L151.931 55.7875L154.618 56.42L154.618 58.0959L144.373 58.0959Z" fill="white"/>
<path d="M71.8141 67.9947C78.104 75.9494 105.47 83.8673 123.877 83.3704C143.772 82.8731 154.668 79.3947 175.879 66.6041C175.818 68.0045 175.631 69.1442 175.661 70.1838C175.639 71.3699 175.63 72.6238 175.914 73.767C175.975 74.1063 176.773 74.6206 177.243 74.6241C177.714 74.6275 178.393 74.0451 178.485 73.6842C179.275 70.233 179.912 66.8033 180.613 63.2949C180.8 62.1552 180.195 61.4051 178.835 61.2482C173.67 60.86 168.494 60.4038 163.266 60.0941C162.083 60.0515 160.755 60.5162 159.227 60.7309C160.975 63.4778 163.665 62.752 165.787 63.2195C167.998 63.7442 170.3 63.908 173.122 64.3468C167.461 69.0388 161.467 72.3161 154.932 74.7646C131.013 83.8297 107.25 82.4344 83.8532 73.0544C80.8082 71.8118 77.9438 70.2655 74.9631 68.9443C74.0612 68.723 73.2357 68.491 71.8141 67.9947Z" fill="#DF6951"/>
</svg>
