<svg width="9" height="3" viewBox="0 0 9 3" fill="none" xmlns="http://www.w3.org/2000/svg">
<path d="M1.484 2.084C1.24133 2.084 1.036 2 0.868 1.832C0.7 1.664 0.616 1.45867 0.616 1.216C0.616 0.973333 0.7 0.768 0.868 0.6C1.036 0.432 1.24133 0.348 1.484 0.348C1.71733 0.348 1.91333 0.432 2.072 0.6C2.24 0.768 2.324 0.973333 2.324 1.216C2.324 1.45867 2.24 1.664 2.072 1.832C1.91333 2 1.71733 2.084 1.484 2.084ZM4.42345 2.084C4.18079 2.084 3.97545 2 3.80745 1.832C3.63945 1.664 3.55545 1.45867 3.55545 1.216C3.55545 0.973333 3.63945 0.768 3.80745 0.6C3.97545 0.432 4.18079 0.348 4.42345 0.348C4.65679 0.348 4.85279 0.432 5.01145 0.6C5.17945 0.768 5.26345 0.973333 5.26345 1.216C5.26345 1.45867 5.17945 1.664 5.01145 1.832C4.85279 2 4.65679 2.084 4.42345 2.084ZM7.36291 2.084C7.12024 2.084 6.91491 2 6.74691 1.832C6.57891 1.664 6.49491 1.45867 6.49491 1.216C6.49491 0.973333 6.57891 0.768 6.74691 0.6C6.91491 0.432 7.12024 0.348 7.36291 0.348C7.59624 0.348 7.79224 0.432 7.95091 0.6C8.11891 0.768 8.20291 0.973333 8.20291 1.216C8.20291 1.45867 8.11891 1.664 7.95091 1.832C7.79224 2 7.59624 2.084 7.36291 2.084Z" fill="currentColor"/>
</svg>
