<svg width="19" height="20" viewBox="0 0 19 20" fill="none" xmlns="http://www.w3.org/2000/svg">
<g clip-path="url(#clip0_46_1456)">
<path d="M17.2501 18.125H17.1438C4.86259 17.4187 3.11884 7.05625 2.87509 3.89375C2.85545 3.64786 2.88452 3.40052 2.96064 3.16588C3.03676 2.93125 3.15842 2.71394 3.31867 2.52641C3.47891 2.33888 3.67458 2.1848 3.89448 2.07302C4.11437 1.96124 4.35415 1.89395 4.60009 1.875H8.04384C8.29419 1.87476 8.53885 1.94969 8.74611 2.0901C8.95338 2.23051 9.11372 2.42992 9.20634 2.6625L10.1563 5C10.2478 5.22722 10.2705 5.4763 10.2216 5.71631C10.1727 5.95631 10.0544 6.17667 9.88134 6.35L8.55009 7.69375C8.75804 8.87547 9.32396 9.96479 10.1713 10.8143C11.0186 11.6639 12.1064 12.2327 13.2876 12.4438L14.6438 11.1C14.8198 10.9288 15.0422 10.8133 15.2834 10.7677C15.5246 10.7221 15.7738 10.7486 16.0001 10.8438L18.3563 11.7875C18.5854 11.8831 18.7809 12.0446 18.9178 12.2517C19.0547 12.4587 19.1269 12.7018 19.1251 12.95V16.25C19.1251 16.7473 18.9276 17.2242 18.5759 17.5758C18.2243 17.9275 17.7474 18.125 17.2501 18.125ZM4.75009 3.125C4.58433 3.125 4.42536 3.19085 4.30815 3.30806C4.19094 3.42527 4.12509 3.58424 4.12509 3.75V3.8C4.41259 7.5 6.25634 16.25 17.2126 16.875C17.2947 16.8801 17.377 16.8689 17.4548 16.8421C17.5326 16.8153 17.6043 16.7734 17.6658 16.7188C17.7274 16.6642 17.7775 16.598 17.8135 16.524C17.8494 16.45 17.8703 16.3696 17.8751 16.2875V12.95L15.5188 12.0062L13.7251 13.7875L13.4251 13.75C7.98759 13.0688 7.25009 7.63125 7.25009 7.575L7.21259 7.275L8.98759 5.48125L8.05009 3.125H4.75009Z" fill="currentColor"/>
</g>
<defs>
<clipPath id="clip0_46_1456">
<rect width="19" height="20" fill="white"/>
</clipPath>
</defs>
</svg>
