<svg width="15" height="12" viewBox="0 0 15 12" fill="none" xmlns="http://www.w3.org/2000/svg">
<path d="M12.7321 2.90625C12.7321 3.04297 12.7321 3.15234 12.7321 3.28906C12.7321 7.08984 9.861 11.4375 4.58365 11.4375C2.94303 11.4375 1.43912 10.9727 0.181311 10.1523C0.400061 10.1797 0.618811 10.207 0.864905 10.207C2.20475 10.207 3.43522 9.74219 4.41959 8.97656C3.16178 8.94922 2.09537 8.12891 1.7399 6.98047C1.93131 7.00781 2.09537 7.03516 2.28678 7.03516C2.53287 7.03516 2.80631 6.98047 3.02506 6.92578C1.71256 6.65234 0.728186 5.50391 0.728186 4.10938V4.08203C1.111 4.30078 1.57584 4.41016 2.04069 4.4375C1.24772 3.91797 0.75553 3.04297 0.75553 2.05859C0.75553 1.51172 0.892249 1.01953 1.13834 0.609375C2.56022 2.33203 4.69303 3.48047 7.07194 3.61719C7.01725 3.39844 6.9899 3.17969 6.9899 2.96094C6.9899 1.375 8.27506 0.0898438 9.861 0.0898438C10.6813 0.0898438 11.4196 0.417969 11.9665 0.992188C12.5954 0.855469 13.2243 0.609375 13.7712 0.28125C13.5524 0.964844 13.1149 1.51172 12.5133 1.86719C13.0876 1.8125 13.6618 1.64844 14.154 1.42969C13.7712 2.00391 13.279 2.49609 12.7321 2.90625Z" fill="#DF6951"/>
</svg>
