<svg width="10" height="10" viewBox="0 0 10 10" fill="none" xmlns="http://www.w3.org/2000/svg">
<path d="M2.91667 4.16668H8.33333C8.56346 4.16668 8.75 4.35322 8.75 4.58334V8.75001C8.75 8.98013 8.56346 9.16668 8.33333 9.16668H1.66667C1.43655 9.16668 1.25 8.98013 1.25 8.75001V4.58334C1.25 4.35322 1.43655 4.16668 1.66667 4.16668H2.08333V3.75001C2.08333 2.13918 3.38917 0.833344 5 0.833344C6.14187 0.833344 7.13046 1.48951 7.60933 2.44535L6.86379 2.81811C6.52175 2.13537 5.81562 1.66668 5 1.66668C3.84941 1.66668 2.91667 2.59942 2.91667 3.75001V4.16668ZM2.08333 5.00001V8.33334H7.91667V5.00001H2.08333ZM4.16667 6.25001H5.83333V7.08334H4.16667V6.25001Z" fill="currentColor"/>
</svg>
