<svg width="20" height="20" viewBox="0 0 20 20" fill="none" xmlns="http://www.w3.org/2000/svg">
<path d="M9.16602 2.49228C7.3251 2.49228 5.83268 3.98478 5.83268 5.82561H4.99935C3.15843 5.82561 1.66602 7.31811 1.66602 9.15895V14.1589C1.66602 15.9998 3.15843 17.4923 4.99935 17.4923H14.9994C16.8403 17.4923 18.3327 15.9998 18.3327 14.1589V9.15895C18.3327 7.31811 16.8403 5.82561 14.9994 5.82561H14.166C14.166 3.98478 12.6736 2.49228 10.8327 2.49228H9.16602ZM9.16602 4.15895H10.8327C11.7532 4.15895 12.4994 4.90478 12.4994 5.82561H7.49935C7.49935 4.90478 8.24552 4.15895 9.16602 4.15895ZM4.99935 7.49228H14.9994C15.9199 7.49228 16.666 8.23811 16.666 9.15895V9.39312L12.2129 10.8773C11.017 11.2765 8.98168 11.2765 7.78585 10.8773L3.33268 9.39312V9.15895C3.33268 8.23811 4.07885 7.49228 4.99935 7.49228ZM3.33268 11.1381L7.26502 12.4664C8.80293 12.9789 11.1958 12.9789 12.7337 12.4664L16.666 11.1381V14.1589C16.666 15.0798 15.9199 15.8256 14.9994 15.8256H4.99935C4.07885 15.8256 3.33268 15.0798 3.33268 14.1589V11.1381Z" fill="#DF6951"/>
</svg>
